<?xml version="1.0" encoding="UTF-8"?>
<svg width="70px" height="60px" viewBox="0 0 70 60" version="1.1" xmlns="http://www.w3.org/2000/svg" xmlns:xlink="http://www.w3.org/1999/xlink">
    <!-- Generator: Sketch 52.6 (67491) - http://www.bohemiancoding.com/sketch -->
    <title>benefits-lg</title>
    <desc>Created with Sketch.</desc>
    <g id="benefits-lg" stroke="none" stroke-width="1" fill="none" fill-rule="evenodd">
        <g id="Group">
            <rect id="Rectangle" fill-rule="nonzero" x="0" y="0" width="70" height="60"></rect>
            <g id="Group-33" transform="translate(6.000000, 4.000000)">
                <path d="M56.934,11.069 C60.127,16.67 55.6,22.317 54.934,24.553 C53.278,30.108 52.6,34.337 52.865,41.464 C53.121,48.397 38.434,56.041 27.288,47.62 C17.213,40.007 12.833,41.277 7.6,39.359 C2.934,37.647 -2.515,31.432 1.267,23.569 C3.934,18.024 15.088,13.759 26.128,11.605 C30.206,10.809 39.555,8.169 43.07,6.753 C48.855,4.423 54.267,6.393 56.934,11.069" id="Fill-1" fill="#E6F4EF"></path>
                <polygon id="Fill-3" fill="#D5E9C5" points="31.0883 21.9806 11.5093 12.7206 31.0883 3.4606 50.6673 12.7206"></polygon>
                <path d="M51.642,2.6251 L55.892,2.6251" id="Stroke-5" stroke="#509D45" stroke-linecap="round"></path>
                <path d="M53.767,0.5001 L53.767,4.7501" id="Stroke-7" stroke="#509D45" stroke-linecap="round"></path>
                <path d="M42.6029,44.4591 L46.8529,44.4591" id="Stroke-9" stroke="#509D45" stroke-linecap="round"></path>
                <path d="M44.7279,42.3341 L44.7279,46.5841" id="Stroke-11" stroke="#509D45" stroke-linecap="round"></path>
                <path d="M4.35,28.546 L8.6,28.546" id="Stroke-13" stroke="#509D45" stroke-linecap="round"></path>
                <path d="M6.475,26.421 L6.475,30.671" id="Stroke-15" stroke="#509D45" stroke-linecap="round"></path>
                <polygon id="Fill-17" fill="#9ECE7B" points="31.0883 44.4591 11.5093 35.2291 11.5093 12.7211 31.0883 21.9801"></polygon>
                <polygon id="Fill-19" fill="#62B146" points="31.0883 44.4591 50.6673 35.2291 50.6673 12.7211 31.0883 21.9801"></polygon>
                <polygon id="Fill-21" fill="#0F4431" points="42.1039 39.2667 40.1349 40.1947 40.1359 17.7017 42.1039 16.7707"></polygon>
                <polygon id="Fill-23" fill="#12533D" points="32.8851 12.3282 30.6111 13.1972 40.1361 17.7012 42.1041 16.7702"></polygon>
                <polygon id="Fill-25" fill="#12533D" points="29.8578 12.0553 32.2088 12.8923 22.0408 17.7013 22.0418 40.1943 20.0728 39.2663 20.0728 16.7703"></polygon>
                <path d="M22.8842,3.3751 C22.5452,3.4211 22.2322,3.5591 21.9572,3.7921 C20.8792,4.7121 21.1702,6.4651 22.6982,8.2591 C24.3002,10.1371 26.8252,10.8861 28.2452,11.1701 C28.1912,9.7221 27.8522,7.1111 26.2502,5.2311 C25.1112,3.8931 23.8822,3.2391 22.8842,3.3751 Z M30.1462,13.3981 L29.1612,13.3271 C28.9542,13.3121 24.0442,12.9201 21.1762,9.5561 C18.5422,6.4651 19.0192,3.6701 20.6592,2.2701 C22.3042,0.8731 25.1382,0.8441 27.7732,3.9351 C30.6402,7.2991 30.2482,12.2081 30.2312,12.4161 L30.1462,13.3981 Z" id="Fill-27" fill="#1B6E55"></path>
                <path d="M35.4418,5.2316 C33.8398,7.1106 33.5018,9.7216 33.4468,11.1696 C34.8668,10.8866 37.3918,10.1376 38.9938,8.2586 C40.5218,6.4646 40.8128,4.7116 39.7348,3.7926 C39.4608,3.5596 39.1468,3.4206 38.8078,3.3756 C37.8098,3.2396 36.5818,3.8936 35.4418,5.2316 Z M31.4618,12.4166 C31.4438,12.2086 31.0518,7.2986 33.9198,3.9346 C36.5538,0.8446 39.3878,0.8726 41.0328,2.2706 C42.6728,3.6696 43.1498,6.4656 40.5158,9.5556 C37.6478,12.9196 32.7378,13.3126 32.5298,13.3276 L31.5458,13.3986 L31.4618,12.4166 Z" id="Fill-29" fill="#1B6E55"></path>
                <path d="M30.8461,13.691 C30.1561,13.691 29.5961,13.131 29.5961,12.441 L29.5961,11.069 C29.5961,10.378 30.1561,9.819 30.8461,9.819 C31.5361,9.819 32.0961,10.378 32.0961,11.069 L32.0961,12.441 C32.0961,13.131 31.5361,13.691 30.8461,13.691" id="Fill-31" fill="#134737"></path>
            </g>
        </g>
    </g>
</svg>