<?xml version="1.0" encoding="UTF-8"?>
<svg width="70px" height="60px" viewBox="0 0 70 60" version="1.1" xmlns="http://www.w3.org/2000/svg" xmlns:xlink="http://www.w3.org/1999/xlink">
    <!-- Generator: Sketch 52.2 (67145) - http://www.bohemiancoding.com/sketch -->
    <title>competencies-lg</title>
    <desc>Created with Sketch.</desc>
    <defs>
        <polygon id="path-1" points="0.000380668281 0.101573563 59.9694737 0.101573563 59.9694737 45.262904 0.000380668281 45.262904"></polygon>
    </defs>
    <g id="competencies-lg" stroke="none" stroke-width="1" fill="none" fill-rule="evenodd">
        <g id="Group-26" transform="translate(5.000000, 3.000000)">
            <g id="Group-3" transform="translate(0.000000, 8.772316)">
                <mask id="mask-2" fill="white">
                    <use xlink:href="#path-1"></use>
                </mask>
                <g id="Clip-2"></g>
                <path d="M58.8633684,5.81431579 C61.6265263,10.9458947 58.736,16.9764211 55.4423158,21.3816842 C52.1475789,25.7858947 53.5875789,32.7585263 52.4938947,36.4722105 C51.3991579,40.1869474 42.5412632,49.6153684 30.6023158,42.928 C18.6644211,36.2406316 19.0296842,31.0237895 13.8633684,29.8932632 C8.696,28.7627368 -3.97557895,24.8848421 1.23178947,11.9985263 C5.03389474,2.588 17.3454737,7.85852632 27.8223158,5.81431579 C31.6917895,5.05957895 40.5633684,2.55431579 43.8991579,1.21010526 C49.3896842,-1.00042105 55.6675789,-0.120421053 58.8633684,5.81431579" id="Fill-1" fill="#E1F3F0" mask="url(#mask-2)"></path>
            </g>
            <path d="M8.05336842,43.0046316 L12.5270526,43.0046316" id="Stroke-4" stroke="#509E2F" stroke-linecap="round"></path>
            <path d="M10.2902105,40.7677895 L10.2902105,45.2414737" id="Stroke-6" stroke="#509E2F" stroke-linecap="round"></path>
            <path d="M46.8557895,17.8591579 L51.3294737,17.8591579" id="Stroke-8" stroke="#509E2F" stroke-linecap="round"></path>
            <path d="M49.0926316,15.6223158 L49.0926316,20.096" id="Stroke-10" stroke="#509E2F" stroke-linecap="round"></path>
            <path d="M39.4102105,36.4622105 C43.4407368,33.3053684 51.3228421,27.218 51.3228421,27.218 L51.3228421,25.5401053 L39.1828421,34.9611579 L39.4102105,36.4622105 Z" id="Fill-12" fill="#1D7E66"></path>
            <path d="M29.3146316,10.6321053 L30.782,10.6321053 C30.782,10.6321053 32.7977895,20.8731579 34.3356842,25.1036842 C39.4335789,25.2489474 44.5809474,25.3942105 49.6809474,25.5405263 C45.6504211,28.6963158 41.5714737,31.8047368 37.5398947,34.9605263 C38.6598947,38.8615789 43.5041053,49.6742105 43.5041053,49.6742105 L41.5083158,49.6742105 L30.782,42.6131579 L20.3241053,49.6742105 L18.1083158,49.6742105 C18.1083158,49.6742105 20.6377895,41.3984211 22.0946316,36.4942105 C18.0156842,33.3373684 10.2904211,27.2184211 10.2904211,27.2184211 L10.2904211,25.5405263 L24.0346316,25.1373684 L29.3146316,10.6321053 Z" id="Fill-14" fill="#11533D"></path>
            <path d="M30.7815789,10.6321053 C32.53,15.4878947 34.2289474,20.2952632 35.9784211,25.1036842 C41.0763158,25.2489474 46.2236842,25.3942105 51.3236842,25.5405263 C47.2931579,28.6963158 43.2142105,31.8047368 39.1826316,34.9605263 C40.5910526,39.8647368 42.0478947,44.77 43.5047368,49.6742105 C39.2794737,46.81 35.0068421,43.9436842 30.7815789,41.0310526 C26.5573684,43.9436842 22.3331579,46.81 18.1078947,49.6742105 C19.5647368,44.77 20.9731579,39.8647368 22.4289474,34.9605263 C18.35,31.8047368 14.3194737,28.6963158 10.29,25.5405263 C15.3889474,25.3942105 20.4878947,25.2489474 25.6342105,25.1036842 C27.3342105,20.2952632 29.0826316,15.4878947 30.7815789,10.6321053" id="Fill-16" fill="#73C241"></path>
            <path d="M30.7815789,10.6321053 C32.53,15.4878947 34.2289474,20.2952632 35.9784211,25.1036842 C41.0763158,25.2489474 46.2236842,25.3942105 51.3236842,25.5405263 C47.2931579,28.6963158 43.2142105,31.8047368 39.1826316,34.9605263 C40.5910526,39.8647368 42.0478947,44.77 43.5047368,49.6742105 C39.2794737,46.81 35.0068421,43.9436842 30.7815789,41.0310526" id="Fill-18" fill="#9ED47B"></path>
            <path d="M30.6407368,-0.000105263158 L30.6407368,6.43778947" id="Stroke-20" stroke="#509E2F" stroke-width="2" stroke-linecap="round"></path>
            <path d="M22.0983158,3.21894737 L26.6509474,7.77157895" id="Stroke-22" stroke="#509E2F" stroke-width="2" stroke-linecap="round"></path>
            <path d="M39.1830526,3.21894737 L34.6304211,7.77157895" id="Stroke-24" stroke="#509E2F" stroke-width="2" stroke-linecap="round"></path>
        </g>
        <rect id="Rectangle" fill-rule="nonzero" x="0" y="0" width="70" height="60"></rect>
    </g>
</svg>