<?xml version="1.0" encoding="UTF-8"?>
<svg width="70px" height="60px" viewBox="0 0 70 60" version="1.1" xmlns="http://www.w3.org/2000/svg" xmlns:xlink="http://www.w3.org/1999/xlink">
    <!-- Generator: Sketch 52.2 (67145) - http://www.bohemiancoding.com/sketch -->
    <title>directory-lg</title>
    <desc>Created with Sketch.</desc>
    <defs>
        <polygon id="path-1" points="0 0.00427304906 63.1264 0.00427304906 63.1264 41.7264438 0 41.7264438"></polygon>
        <polygon id="path-3" points="0.187306667 0.663343465 35.9953067 0.663343465 35.9953067 41.3201994 0.187306667 41.3201994"></polygon>
        <polygon id="path-5" points="0 49.6229058 63.1264 49.6229058 63.1264 1.07044377 0 1.07044377"></polygon>
    </defs>
    <g id="directory-lg" stroke="none" stroke-width="1" fill="none" fill-rule="evenodd">
        <g id="Group-49" transform="translate(2.000000, 5.000000)">
            <g id="Group-3" transform="translate(0.000000, 7.896462)">
                <mask id="mask-2" fill="white">
                    <use xlink:href="#path-1"></use>
                </mask>
                <g id="Clip-2"></g>
                <path d="M39.5307733,0.458348936 C47.28864,1.91235502 50.5377067,7.81397204 53.4987733,15.0615343 C54.8011733,18.2520024 56.77984,19.6257653 60.97504,24.0541179 C64.4033067,27.6746894 64.4875733,35.3716134 55.59904,38.8456073 C49.61504,41.184428 43.81984,42.1056195 38.77984,41.5856438 C32.85984,40.9747258 29.8177067,39.4896924 22.4129067,34.7628353 C14.28704,29.5748474 8.76597333,29.2217775 5.52650667,27.5302517 C-3.67029333,22.7263611 -0.56736,11.2098626 8.79690667,9.90243404 C20.85344,8.21732766 21.2395733,5.73085957 24.8897067,3.05822736 C30.0417067,-0.712131307 36.1067733,-0.183596353 39.5307733,0.458348936" id="Fill-1" fill="#E1F3F0" mask="url(#mask-2)"></path>
            </g>
            <path d="M54.9015467,14.9977678 L59.43488,14.9977678" id="Stroke-4" stroke="#509E2F" stroke-width="1.16666667" stroke-linecap="round"></path>
            <path d="M57.1682133,12.7242116 L57.1682133,17.271324" id="Stroke-6" stroke="#509E2F" stroke-width="1.16666667" stroke-linecap="round"></path>
            <path d="M6.54634667,44.9196936 L11.07968,44.9196936" id="Stroke-8" stroke="#509E2F" stroke-width="1.16666667" stroke-linecap="round"></path>
            <path d="M8.81301333,42.6461374 L8.81301333,47.1932498" id="Stroke-10" stroke="#509E2F" stroke-width="1.16666667" stroke-linecap="round"></path>
            <path d="M15.12032,42.3635745 L15.1853867,42.3635745 C15.14272,42.158152 15.12032,41.9452401 15.12032,41.7269787 L15.12032,42.3635745 Z" id="Fill-12" fill="#35B5C4"></path>
            <g id="Group-16" transform="translate(14.933333, 0.407100)">
                <mask id="mask-4" fill="white">
                    <use xlink:href="#path-3"></use>
                </mask>
                <g id="Clip-15"></g>
                <path d="M35.9953067,0.662594529 L0.187306667,0.662594529 L0.187306667,41.3201994 C0.187306667,39.5569897 1.61237333,38.1275915 3.37024,38.1275915 L35.9953067,38.1275915 L35.9953067,0.662594529 Z" id="Fill-14" fill="#EEF8E8" mask="url(#mask-4)"></path>
            </g>
            <path d="M42.3181867,32.8320778 L25.9789867,32.8320778 L25.9789867,24.6847222 C25.9789867,20.732479 29.1725867,17.529172 33.1128533,17.529172 L35.1853867,17.529172 C39.1245867,17.529172 42.3181867,20.732479 42.3181867,24.6847222 L42.3181867,32.8320778 Z" id="Fill-17" fill="#1D7E66"></path>
            <path d="M34.4016,21.0458553 L33.8746667,21.0458553 C32.9541333,21.0458553 32.2074667,20.2969191 32.2074667,19.3746578 L32.2074667,14.9259769 L36.0677333,14.9259769 L36.0677333,19.3746578 C36.0677333,20.2969191 35.3221333,21.0458553 34.4016,21.0458553" id="Fill-19" fill="#A6D8C7"></path>
            <path d="M33.8744533,21.0458553 C32.95392,21.0458553 32.20832,20.2969191 32.20832,19.3746578 L32.20832,14.9259769 L36.0685867,14.9259769 L36.0685867,17.6670833 L33.8744533,21.0458553 Z" id="Fill-21" fill="#49A58F"></path>
            <path d="M34.29216,7.71008389 C31.46336,7.71008389 29.1700267,10.0103878 29.1700267,12.847786 C29.1700267,13.1259623 29.2094933,13.3934395 29.2510933,13.6587769 L37.46976,8.84739696 C36.5950933,8.14660669 35.4996267,7.71008389 34.29216,7.71008389" id="Fill-23" fill="#0F4827"></path>
            <path d="M30.3515733,13.563234 C30.3515733,14.2180182 29.8225067,14.748693 29.1707733,14.748693 C28.5179733,14.748693 27.9889067,14.2180182 27.9889067,13.563234 C27.9889067,12.9095198 28.5179733,12.378845 29.1707733,12.378845 C29.8225067,12.378845 30.3515733,12.9095198 30.3515733,13.563234" id="Fill-25" fill="#A6D8C7"></path>
            <path d="M39.8088533,13.8547842 L39.2797867,13.8547842 C38.9288533,13.8547842 38.6440533,13.5691185 38.6440533,13.2171185 L38.6440533,13.0159757 C38.6440533,12.6639757 38.9288533,12.37831 39.2797867,12.37831 L39.8088533,12.37831 C40.1597867,12.37831 40.4445867,12.6639757 40.4445867,13.0159757 L40.4445867,13.2171185 C40.4445867,13.5691185 40.1597867,13.8547842 39.8088533,13.8547842" id="Fill-27" fill="#A6D8C7"></path>
            <path d="M33.8744533,21.0458553 C32.95392,21.0458553 32.20832,20.2969191 32.20832,19.3746578 L32.20832,17.5932596 C28.6968533,18.0404815 25.9789867,21.0415757 25.9789867,24.6846152 L25.9789867,32.8319708 L33.8744533,21.0458553 Z" id="Fill-29" fill="#1A634E"></path>
            <path d="M36.2401067,14.7898845 L39.02944,14.7898845 C39.2747733,14.1896657 39.4145067,13.5359514 39.4145067,12.848 C39.4145067,11.2217386 38.6465067,9.7891307 37.4699733,8.84761094 L29.2513067,13.657921 C29.64064,16.1080122 31.73984,17.9857021 34.2923733,17.9857021 C35.6555733,17.9857021 36.8865067,17.4421884 37.8059733,16.5712827 C36.92384,16.4546626 36.2401067,15.7057264 36.2401067,14.7898845" id="Fill-31" fill="#A6D8C7"></path>
            <path d="M39.0296533,14.7898845 L36.24032,14.7898845 C36.24032,15.7057264 36.9229867,16.4546626 37.8061867,16.5712827 C38.32992,16.0727052 38.7512533,15.4714164 39.0296533,14.7898845" id="Fill-33" fill="#1D7E66"></path>
            <path d="M36.6818133,12.4980328 C36.6818133,12.76551 36.46528,12.9827015 36.1986133,12.9827015 C35.9319467,12.9827015 35.7154133,12.76551 35.7154133,12.4980328 C35.7154133,12.2305556 35.9319467,12.0133641 36.1986133,12.0133641 C36.46528,12.0133641 36.6818133,12.2305556 36.6818133,12.4980328" id="Fill-35" fill="#0F4827"></path>
            <mask id="mask-6" fill="white">
                <use xlink:href="#path-5"></use>
            </mask>
            <g id="Clip-38"></g>
            <polygon id="Fill-37" fill="#0F4827" mask="url(#mask-6)" points="38.8288 32.8317568 39.2309333 32.8317568 39.2309333 24.5399635 38.8288 24.5399635"></polygon>
            <polygon id="Fill-39" fill="#0F4827" mask="url(#mask-6)" points="29.5242667 32.8317568 29.9264 32.8317568 29.9264 24.5399635 29.5242667 24.5399635"></polygon>
            <path d="M15.50464,1.06969483 L15.50464,40.9890626" id="Stroke-40" stroke="#ADDB8F" stroke-width="1.16666667" mask="url(#mask-6)"></path>
            <path d="M18.30368,38.5342638 C16.5458133,38.5342638 15.1207467,39.963662 15.1207467,41.7268717 C15.1207467,41.9451331 15.1431467,42.158045 15.1847467,42.3634675 C15.4791467,43.8217532 16.7634133,44.9194796 18.30368,44.9194796 L49.6146133,44.9194796 L49.6146133,38.5342638 L18.30368,38.5342638 Z" id="Fill-41" fill="#17A78E" mask="url(#mask-6)"></path>
            <path d="M49.6151467,39.9724353 L19.8146133,39.9724353 C19.47648,39.9724353 19.2023467,40.2474018 19.2023467,40.5865629 C19.2023467,40.925724 19.47648,41.2006906 19.8146133,41.2006906 L49.6151467,41.2006906 L49.6151467,39.9724353 Z" id="Fill-42" fill="#11533D" mask="url(#mask-6)"></path>
            <path d="M49.6151467,42.0453836 L19.8146133,42.0453836 C19.47648,42.0453836 19.2023467,42.3203502 19.2023467,42.6595112 C19.2023467,42.9986723 19.47648,43.2736389 19.8146133,43.2736389 L49.6151467,43.2736389 L49.6151467,42.0453836 Z" id="Fill-43" fill="#11533D" mask="url(#mask-6)"></path>
            <path d="M17.3869867,7.26189909 L13.3773867,7.26189909 C12.7512533,7.26189909 12.2445867,6.75262249 12.2445867,6.12565593 L12.2445867,5.78863465 C12.2445867,5.16059818 12.7512533,4.65132158 13.3773867,4.65132158 L17.3869867,4.65132158 C18.01312,4.65132158 18.5197867,5.16059818 18.5197867,5.78863465 L18.5197867,6.12565593 C18.5197867,6.75262249 18.01312,7.26189909 17.3869867,7.26189909" id="Fill-44" fill="#49A58F" mask="url(#mask-6)"></path>
            <path d="M17.3869867,14.4272924 L13.3773867,14.4272924 C12.7512533,14.4272924 12.2445867,13.9180158 12.2445867,13.2910492 L12.2445867,12.954028 C12.2445867,12.3259915 12.7512533,11.8167149 13.3773867,11.8167149 L17.3869867,11.8167149 C18.01312,11.8167149 18.5197867,12.3259915 18.5197867,12.954028 L18.5197867,13.2910492 C18.5197867,13.9180158 18.01312,14.4272924 17.3869867,14.4272924" id="Fill-45" fill="#49A58F" mask="url(#mask-6)"></path>
            <path d="M17.3869867,21.5927927 L13.3773867,21.5927927 C12.7512533,21.5927927 12.2445867,21.0835161 12.2445867,20.4565495 L12.2445867,20.1195283 C12.2445867,19.4914918 12.7512533,18.9822152 13.3773867,18.9822152 L17.3869867,18.9822152 C18.01312,18.9822152 18.5197867,19.4914918 18.5197867,20.1195283 L18.5197867,20.4565495 C18.5197867,21.0835161 18.01312,21.5927927 17.3869867,21.5927927" id="Fill-46" fill="#49A58F" mask="url(#mask-6)"></path>
            <path d="M17.3869867,28.758293 L13.3773867,28.758293 C12.7512533,28.758293 12.2445867,28.2490164 12.2445867,27.6220498 L12.2445867,27.2850286 C12.2445867,26.6569921 12.7512533,26.1487854 13.3773867,26.1487854 L17.3869867,26.1487854 C18.01312,26.1487854 18.5197867,26.6569921 18.5197867,27.2850286 L18.5197867,27.6220498 C18.5197867,28.2490164 18.01312,28.758293 17.3869867,28.758293" id="Fill-47" fill="#49A58F" mask="url(#mask-6)"></path>
            <path d="M17.3869867,35.9242213 L13.3773867,35.9242213 C12.7512533,35.9242213 12.2445867,35.4149447 12.2445867,34.7879781 L12.2445867,34.4509568 C12.2445867,33.8229204 12.7512533,33.3136438 13.3773867,33.3136438 L17.3869867,33.3136438 C18.01312,33.3136438 18.5197867,33.8229204 18.5197867,34.4509568 L18.5197867,34.7879781 C18.5197867,35.4149447 18.01312,35.9242213 17.3869867,35.9242213" id="Fill-48" fill="#49A58F" mask="url(#mask-6)"></path>
        </g>
        <rect id="Rectangle" fill-rule="nonzero" x="0" y="1" width="70" height="60"></rect>
    </g>
</svg>