<?xml version="1.0" encoding="UTF-8"?>
<svg width="70px" height="60px" viewBox="0 0 70 60" version="1.1" xmlns="http://www.w3.org/2000/svg" xmlns:xlink="http://www.w3.org/1999/xlink">
    <!-- Generator: Sketch 52.6 (67491) - http://www.bohemiancoding.com/sketch -->
    <title>learning-lg</title>
    <desc>Created with Sketch.</desc>
    <defs>
        <polygon id="path-1" points="0 0.636941017 63.289 0.636941017 63.289 43.9996692 0 43.9996692"></polygon>
        <polygon id="path-3" points="0 51.9844 63.289 51.9844 63.289 0.0004 0 0.0004"></polygon>
    </defs>
    <g id="learning-lg" stroke="none" stroke-width="1" fill="none" fill-rule="evenodd">
        <g id="Group">
            <g id="Group-51" transform="translate(3.000000, 4.000000)">
                <g id="Group-3" transform="translate(0.000000, 7.984400)">
                    <mask id="mask-2" fill="white">
                        <use xlink:href="#path-1"></use>
                    </mask>
                    <g id="Clip-2"></g>
                    <path d="M63.2456,10.5746 C63.8796,16.1556 57.4756,19.1936 53.3316,22.6356 C49.1866,26.0776 45.1706,33.7326 44.6216,37.3806 C43.6226,44.0366 33.0326,47.2116 27.7976,39.4706 C21.8646,30.6976 17.7236,25.8906 12.5386,23.7506 C7.3546,21.6116 -5.1784,15.3276 2.3446,4.3326 C7.8386,-3.6964 19.7676,3.8176 30.9896,4.0896 C35.1346,4.1896 44.7646,3.6946 48.4506,3.1316 C54.5176,2.2056 62.5036,4.0456 63.2456,10.5746" id="Fill-1" fill="#E6F4EF" mask="url(#mask-2)"></path>
                </g>
                <path d="M18.0313,30.7948 C18.0243,30.8288 18.0133,30.8638 18.0073,30.8988 L31.5353,30.8988 L45.0633,30.8988 C44.5913,28.4618 43.2813,25.6558 41.8063,23.1728 C36.5003,27.3418 27.9193,30.2308 18.0313,30.7948" id="Fill-4" fill="#9ECE7B"></path>
                <path d="M36.9116,16.85 L31.5356,16.85 L26.1586,16.85 C24.1766,18.315 19.1166,25.43 18.0316,30.795 C27.9196,30.23 36.5006,27.342 41.8066,23.173 C40.0246,20.178 38.0026,17.656 36.9116,16.85" id="Fill-6" fill="#62B146"></path>
                <path d="M48.145,34.3016 C48.145,33.3396 48.313,32.4506 48.598,31.7176 L14.473,31.7176 L14.473,36.8856 L48.598,36.8856 C48.313,36.1516 48.145,35.2626 48.145,34.3016" id="Fill-8" fill="#82C6AE"></path>
                <path d="M3.4478,37.1796 L7.6978,37.1796" id="Stroke-10" stroke="#509D45" stroke-linecap="round"></path>
                <path d="M5.5728,35.0546 L5.5728,39.3046" id="Stroke-12" stroke="#509D45" stroke-linecap="round"></path>
                <path d="M48.8355,23.8222 L53.0855,23.8222" id="Stroke-14" stroke="#509D45" stroke-linecap="round"></path>
                <path d="M50.9605,21.6972 L50.9605,25.9472" id="Stroke-16" stroke="#509D45" stroke-linecap="round"></path>
                <polygon id="Fill-18" fill="#9ECE7B" points="31.3809 22.5883 11.8009 13.3283 31.3809 4.0683 50.9609 13.3283"></polygon>
                <polygon id="Fill-20" fill="#13745B" points="31.3809 25.8383 11.8009 16.5783 11.8009 13.3283 31.3809 22.5883 50.9609 13.3283 50.9609 16.5783"></polygon>
                <path d="M48.2163,33.5946 L19.0623,33.5946" id="Stroke-22" stroke="#43A78A" stroke-width="0.5" stroke-linecap="round"></path>
                <path d="M48.2163,34.9696 L23.4473,34.9696" id="Stroke-24" stroke="#43A78A" stroke-width="0.5" stroke-linecap="round"></path>
                <path d="M50.7466,42.5516 C50.7466,41.5896 50.9146,40.7006 51.1996,39.9676 L12.3756,39.9676 L12.3756,45.1356 L51.1996,45.1356 C50.9146,44.4016 50.7466,43.5126 50.7466,42.5516" id="Fill-26" fill="#82C6AE"></path>
                <path d="M52.3809,46.6766 L14.4179,46.6766 C12.1429,46.6766 10.2929,44.8256 10.2929,42.5516 C10.2929,40.2776 12.1429,38.4266 14.4179,38.4266 L52.3809,38.4266 L52.3809,40.4266 L14.4179,40.4266 C13.2459,40.4266 12.2929,41.3796 12.2929,42.5516 C12.2929,43.7236 13.2459,44.6766 14.4179,44.6766 L52.3809,44.6766 L52.3809,46.6766 Z" id="Fill-28" fill="#0F4935"></path>
                <path d="M50.8931,41.8446 L25.4951,41.8446" id="Stroke-30" stroke="#43A78A" stroke-width="0.5" stroke-linecap="round"></path>
                <path d="M50.8931,43.2196 L17.8931,43.2196" id="Stroke-32" stroke="#43A78A" stroke-width="0.5" stroke-linecap="round"></path>
                <path d="M30.6572,13.5785 L18.4692,15.9465 C16.5322,16.3225 15.1352,18.0185 15.1352,19.9915 L15.1352,23.4065" id="Stroke-34" stroke="#0F4935"></path>
                <path d="M33.6392,13.5785 C33.6392,14.3645 32.5742,15.0005 31.2602,15.0005 C29.9462,15.0005 28.8812,14.3645 28.8812,13.5785 C28.8812,12.7935 29.9462,12.1565 31.2602,12.1565 C32.5742,12.1565 33.6392,12.7935 33.6392,13.5785" id="Fill-36" fill="#107D6B"></path>
                <mask id="mask-4" fill="white">
                    <use xlink:href="#path-3"></use>
                </mask>
                <g id="Clip-39"></g>
                <polygon id="Fill-38" fill="#01674D" mask="url(#mask-4)" points="17.893 32.1764 49.261 32.1764 49.261 30.1764 17.893 30.1764"></polygon>
                <path d="M16.501,38.4266 L49.261,38.4266 L49.261,36.4266 L16.501,36.4266 C15.988,36.4266 15.524,36.2366 15.156,35.9336 L12.716,35.9336 C13.35,37.3976 14.807,38.4266 16.501,38.4266" id="Fill-40" fill="#01674D" mask="url(#mask-4)"></path>
                <path d="M16.8833,35.2489 L17.8933,35.2489 L17.8933,32.1769 L16.5013,32.1769 C15.3293,32.1769 14.3763,33.1299 14.3763,34.3019 C14.3763,34.9609 14.6843,35.5429 15.1563,35.9339 L16.8833,35.9339 L16.8833,35.2489 Z" id="Fill-41" fill="#6CA18C" mask="url(#mask-4)"></path>
                <path d="M14.376,34.3016 C14.376,33.1296 15.329,32.1766 16.501,32.1766 L17.893,32.1766 L17.893,30.1766 L16.501,30.1766 C14.227,30.1766 12.376,32.0276 12.376,34.3016 C12.376,34.8806 12.499,35.4316 12.716,35.9336 L15.156,35.9336 C14.684,35.5426 14.376,34.9606 14.376,34.3016" id="Fill-42" fill="#024D37" mask="url(#mask-4)"></path>
                <path d="M16.98,25.9574 C16.98,24.9384 16.154,24.1124 15.135,24.1124 C14.115,24.1124 13.289,24.9384 13.289,25.9574 L13.289,33.8244 L14.024,33.8244 L14.024,34.4094 L16.116,34.4094 L16.116,33.8244 L16.98,33.8244 L16.98,25.9574 Z" id="Fill-43" fill="#9ECE7B" mask="url(#mask-4)"></path>
                <path d="M16.687,23.1122 C16.687,23.9692 15.992,24.6652 15.135,24.6652 C14.277,24.6652 13.582,23.9692 13.582,23.1122 C13.582,22.2552 14.277,21.5602 15.135,21.5602 C15.992,21.5602 16.687,22.2552 16.687,23.1122" id="Fill-44" fill="#13745B" mask="url(#mask-4)"></path>
                <polygon id="Fill-45" fill="#62B146" mask="url(#mask-4)" points="16.116 33.8234 16.598 33.8234 16.598 26.7814 16.116 26.7814"></polygon>
                <polygon id="Fill-46" fill="#62B146" mask="url(#mask-4)" points="13.991 34.4094 14.473 34.4094 14.473 28.3904 13.991 28.3904"></polygon>
                <polygon id="Fill-47" fill="#62B146" mask="url(#mask-4)" points="15.053 34.4094 15.535 34.4094 15.535 25.8384 15.053 25.8384"></polygon>
                <path d="M17.2271,1.6371 L18.7881,5.6901" id="Stroke-48" stroke="#509D45" stroke-width="2" stroke-linecap="round" mask="url(#mask-4)"></path>
                <path d="M12.8135,4.6473 L16.1315,7.4493" id="Stroke-49" stroke="#509D45" stroke-width="2" stroke-linecap="round" mask="url(#mask-4)"></path>
                <path d="M22.5191,0.9999 L21.9371,5.3039" id="Stroke-50" stroke="#509D45" stroke-width="2" stroke-linecap="round" mask="url(#mask-4)"></path>
            </g>
            <rect id="Rectangle" fill-rule="nonzero" x="0" y="0" width="70" height="60"></rect>
        </g>
    </g>
</svg>