<?xml version="1.0" encoding="UTF-8"?>
<svg width="70px" height="60px" viewBox="0 0 70 60" version="1.1" xmlns="http://www.w3.org/2000/svg" xmlns:xlink="http://www.w3.org/1999/xlink">
    <!-- Generator: Sketch 52.2 (67145) - http://www.bohemiancoding.com/sketch -->
    <title>notes-lg</title>
    <desc>Created with Sketch.</desc>
    <defs>
        <polygon id="path-1" points="0.000103543126 0.369810209 61.3042924 0.369810209 61.3042924 41.65625 0.000103543126 41.65625"></polygon>
        <polygon id="path-3" points="0 52.1512031 61.3044375 52.1512031 61.3044375 0.968265625 0 0.968265625"></polygon>
    </defs>
    <g id="notes-lg" stroke="none" stroke-width="1" fill="none" fill-rule="evenodd">
        <g id="Group">
            <g id="Group-38" transform="translate(4.000000, 4.000000)">
                <g id="Group-3" transform="translate(0.000000, 10.494953)">
                    <mask id="mask-2" fill="white">
                        <use xlink:href="#path-1"></use>
                    </mask>
                    <g id="Clip-2"></g>
                    <path d="M0.384690625,11.4271813 C1.77678438,5.66893125 9.30300313,6.7452125 13.4415031,5.9779625 C17.5800031,5.2107125 28.1151594,2.4207125 35.3807844,0.82905625 C42.6464094,-0.7626 50.5175031,1.9014625 53.0604719,6.9874 C55.6034406,12.0733375 54.8768781,18.0873375 58.3885969,21.135025 C61.9003156,24.1827125 64.5643781,36.8975563 51.9706281,37.6241188 C39.3768781,38.3506813 34.2909406,36.7067125 28.8417219,38.9813375 C23.3925031,41.2569313 9.65756563,44.1244313 6.19719063,37.8663063 C2.92765938,31.9530563 7.77140938,28.9509 7.77140938,24.6283375 C7.77140938,20.3077125 -2.03718438,21.437275 0.384690625,11.4271813" id="Fill-1" fill="#E1F3F0" mask="url(#mask-2)"></path>
                </g>
                <path d="M52.4351438,39.1594906 L56.5523313,39.1594906" id="Stroke-4" stroke="#509E2F" stroke-linecap="round"></path>
                <path d="M54.4937375,37.1008969 L54.4937375,41.2180844" id="Stroke-6" stroke="#509E2F" stroke-linecap="round"></path>
                <path d="M4.63624375,23.4920906 L8.75343125,23.4920906" id="Stroke-8" stroke="#509E2F" stroke-linecap="round"></path>
                <path d="M6.6948375,21.4334969 L6.6948375,25.5506844" id="Stroke-10" stroke="#509E2F" stroke-linecap="round"></path>
                <polygon id="Fill-12" fill="#49A58F" points="47.624525 42.9271531 44.7967438 46.0368406 11.6228687 46.0368406 14.733525 42.9271531"></polygon>
                <polygon id="Fill-14" fill="#58BAA5" points="11.6227719 46.037325 11.6227719 6.7738875 14.7334281 3.70391875 14.7334281 42.9276375"></polygon>
                <mask id="mask-4" fill="white">
                    <use xlink:href="#path-3"></use>
                </mask>
                <g id="Clip-17"></g>
                <polygon id="Fill-16" fill="#EEF8E8" mask="url(#mask-4)" points="14.7337188 42.9267656 47.6247187 42.9267656 47.6247187 3.70401563 14.7337188 3.70401563"></polygon>
                <polygon id="Fill-18" fill="#1D7E66" mask="url(#mask-4)" points="14.7337188 11.3532656 47.6247187 11.3532656 47.6247187 3.70401562 14.7337188 3.70401562"></polygon>
                <path d="M13.662475,7.52902812 C13.662475,7.26165312 13.445475,7.04465312 13.1781,7.04465312 C12.910725,7.04465312 12.693725,7.26165312 12.693725,7.52902812 L12.693725,44.9673406 L13.662475,43.9976219 L13.662475,7.52902812 Z" id="Fill-19" fill="#11533D" mask="url(#mask-4)"></path>
                <polygon id="Fill-20" fill="#11533D" mask="url(#mask-4)" points="13.662475 43.9985906 13.662475 43.9976219 12.693725 44.9663719 12.693725 44.9673406 45.7697563 44.9673406 46.65035 43.9985906"></polygon>
                <path d="M22.4322781,6.51862187 C22.4322781,7.62202812 21.5371531,8.51715312 20.4337469,8.51715312 C19.3303406,8.51715312 18.4361844,7.62202812 18.4361844,6.51862187 C18.4361844,5.41521562 19.3303406,4.52009062 20.4337469,4.52009062 C21.5371531,4.52009062 22.4322781,5.41521562 22.4322781,6.51862187" id="Fill-21" fill="#11533D" mask="url(#mask-4)"></path>
                <path d="M20.4342313,1.93740312 L20.4342313,5.81240312" id="Stroke-22" stroke="#58BAA5" stroke-width="2" stroke-linecap="round" mask="url(#mask-4)"></path>
                <path d="M29.5418375,6.51862187 C29.5418375,7.62202812 28.6467125,8.51715312 27.5433063,8.51715312 C26.4399,8.51715312 25.5457437,7.62202812 25.5457437,6.51862187 C25.5457437,5.41521562 26.4399,4.52009062 27.5433063,4.52009062 C28.6467125,4.52009062 29.5418375,5.41521562 29.5418375,6.51862187" id="Fill-23" fill="#11533D" mask="url(#mask-4)"></path>
                <path d="M27.5437906,1.93740312 L27.5437906,5.81240312" id="Stroke-24" stroke="#58BAA5" stroke-width="2" stroke-linecap="round" mask="url(#mask-4)"></path>
                <path d="M36.6513969,6.51862187 C36.6513969,7.62202812 35.7572406,8.51715312 34.6528656,8.51715312 C33.5504281,8.51715312 32.6553031,7.62202812 32.6553031,6.51862187 C32.6553031,5.41521562 33.5504281,4.52009062 34.6528656,4.52009062 C35.7572406,4.52009062 36.6513969,5.41521562 36.6513969,6.51862187" id="Fill-25" fill="#11533D" mask="url(#mask-4)"></path>
                <path d="M34.65335,1.93740312 L34.65335,5.81240312" id="Stroke-26" stroke="#58BAA5" stroke-width="2" stroke-linecap="round" mask="url(#mask-4)"></path>
                <path d="M43.7618281,6.51862187 C43.7618281,7.62202812 42.8667031,8.51715312 41.7632969,8.51715312 C40.6598906,8.51715312 39.7657344,7.62202812 39.7657344,6.51862187 C39.7657344,5.41521562 40.6598906,4.52009062 41.7632969,4.52009062 C42.8667031,4.52009062 43.7618281,5.41521562 43.7618281,6.51862187" id="Fill-27" fill="#11533D" mask="url(#mask-4)"></path>
                <path d="M41.7637813,1.93740312 L41.7637813,5.81240312" id="Stroke-28" stroke="#58BAA5" stroke-width="2" stroke-linecap="round" mask="url(#mask-4)"></path>
                <path d="M36.8462125,19.8006687 L20.0054625,19.8006687 C19.4697438,19.8006687 19.0367125,19.3666687 19.0367125,18.8319187 C19.0367125,18.2971688 19.4697438,17.8631687 20.0054625,17.8631687 L36.8462125,17.8631687 C37.3819313,17.8631687 37.8149625,18.2971688 37.8149625,18.8319187 C37.8149625,19.3666687 37.3819313,19.8006687 36.8462125,19.8006687" id="Fill-29" fill="#9ED47B" mask="url(#mask-4)"></path>
                <path d="M36.8462125,25.4466406 L20.0054625,25.4466406 C19.4697438,25.4466406 19.0367125,25.0126406 19.0367125,24.4778906 C19.0367125,23.9431406 19.4697438,23.5091406 20.0054625,23.5091406 L36.8462125,23.5091406 C37.3819313,23.5091406 37.8149625,23.9431406 37.8149625,24.4778906 C37.8149625,25.0126406 37.3819313,25.4466406 36.8462125,25.4466406" id="Fill-30" fill="#9ED47B" mask="url(#mask-4)"></path>
                <path d="M29.0271406,31.0926125 L20.0051719,31.0926125 C19.4704219,31.0926125 19.0364219,30.6595813 19.0364219,30.1238625 C19.0364219,29.5891125 19.4704219,29.1551125 20.0051719,29.1551125 L29.0271406,29.1551125 C29.5618906,29.1551125 29.9958906,29.5891125 29.9958906,30.1238625 C29.9958906,30.6595813 29.5618906,31.0926125 29.0271406,31.0926125" id="Fill-31" fill="#9ED47B" mask="url(#mask-4)"></path>
                <path d="M26.6715281,36.7390688 L20.0055594,36.7390688 C19.4698406,36.7390688 19.0368094,36.3050688 19.0368094,35.7703188 C19.0368094,35.2355687 19.4698406,34.8015688 20.0055594,34.8015688 L26.6715281,34.8015688 C27.2062781,34.8015688 27.6402781,35.2355687 27.6402781,35.7703188 C27.6402781,36.3050688 27.2062781,36.7390688 26.6715281,36.7390688" id="Fill-32" fill="#9ED47B" mask="url(#mask-4)"></path>
                <polygon id="Fill-33" fill="#509E2F" mask="url(#mask-4)" points="41.6540219 33.874475 38.5714594 30.7919125 52.3935844 16.9707562 55.4761469 20.05235"></polygon>
                <polygon id="Fill-34" fill="#FFFFFF" mask="url(#mask-4)" points="41.6540219 33.874475 38.5714594 30.7919125 36.9071469 34.2493812 38.1965531 35.5397562"></polygon>
                <polygon id="Fill-35" fill="#1D7E66" mask="url(#mask-4)" points="38.1962625 35.53995 36.9068562 34.249575 35.7075437 36.7392625"></polygon>
                <path d="M56.617625,18.9113563 L53.5350625,15.8287937 L54.3633438,15.0005125 C55.2139063,14.14995 56.594375,14.14995 57.4449375,15.0005125 C58.2964688,15.8520437 58.2964688,17.2325125 57.4449375,18.0840437 L56.617625,18.9113563 Z" id="Fill-36" fill="#1D7E66" mask="url(#mask-4)"></path>
                <polygon id="Fill-37" fill="#11533D" mask="url(#mask-4)" points="55.4757594 20.0527375 52.3931969 16.970175 53.5353531 15.8289875 56.6179156 18.91155"></polygon>
            </g>
            <rect id="Rectangle" fill-rule="nonzero" x="0" y="0" width="70" height="60"></rect>
        </g>
    </g>
</svg>