<?xml version="1.0" encoding="UTF-8"?>
<svg width="70px" height="60px" viewBox="0 0 70 60" version="1.1" xmlns="http://www.w3.org/2000/svg" xmlns:xlink="http://www.w3.org/1999/xlink">
    <!-- Generator: Sketch 52.2 (67145) - http://www.bohemiancoding.com/sketch -->
    <title>pay-lg</title>
    <desc>Created with Sketch.</desc>
    <g id="pay-lg" stroke="none" stroke-width="1" fill="none" fill-rule="evenodd">
        <g id="Group-2" transform="translate(3.000000, 5.000000)">
            <g id="Group">
                <path d="M33.1663297,4.68763971 C40.7133057,4.32406618 45.4755261,9.36975735 49.3360066,16.5781691 C52.5860481,22.6465956 55.6919304,22.0731544 60.5565534,25.6891838 C64.5333554,28.6450662 65.2790058,38.4980074 56.41372,40.9612426 C48.9293786,43.0411985 46.491599,47.3390515 41.7930075,48.690875 C39.3204308,49.4012721 32.5926761,50.4476544 24.6708865,47.2996397 C15.9766031,43.8451985 10.6695609,42.2726691 7.2843082,41.2893456 C-2.326628,38.4980074 -1.9120464,25.6891838 6.53865783,22.0435956 C17.4191881,17.3496544 17.2432146,14.6529044 20.0737034,10.9688897 C24.0654184,5.76949265 29.8347639,4.84824265 33.1663297,4.68763971" id="Fill-1" fill="#E1F3F0"></path>
                <polygon id="Fill-3" fill="#EEF8E8" points="10.1010771 37.5124176 54.8400994 37.5124176 54.8400994 13.8653588 10.1010771 13.8653588"></polygon>
                <polygon id="Fill-5" fill="#1D7E66" points="10.1011765 37.5126147 10.1011765 13.8655559 8.11277548 15.8361441 8.11277548 39.4832029"></polygon>
                <polygon id="Fill-6" fill="#11533D" points="10.1011765 37.5126147 8.11277548 39.4832029 52.8517978 39.4832029 54.8401988 37.5126147"></polygon>
                <path d="M49.9682187,20.5653588 L40.2270423,20.5653588 C39.1831317,20.5653588 38.3380613,19.7268735 38.3380613,18.6933 C38.3380613,17.6597265 39.1831317,16.8212412 40.2270423,16.8212412 L49.9682187,16.8212412 C51.0121292,16.8212412 51.8571997,17.6597265 51.8571997,18.6933 C51.8571997,19.7268735 51.0121292,20.5653588 49.9682187,20.5653588" id="Fill-7" fill="#9ED47B"></path>
                <path d="M21.4112013,25.3739882 C20.8971997,25.1197824 20.383198,24.9542529 19.882121,24.7926647 L19.8612428,24.7877382 L19.8612428,24.5483118 L19.8612428,19.7863853 C21.0801326,19.9735912 22.0723447,20.5559 22.4769843,21.3884735 C22.5207291,21.4781353 22.5843579,21.5540029 22.6539519,21.6200176 C22.8905717,21.8436794 23.2484838,21.91265 23.5606628,21.7648559 C23.9643082,21.5717382 24.1333223,21.0899294 23.938459,20.6899 C23.2753273,19.3213265 21.7203977,18.3764294 19.8612428,18.1586794 L19.8612428,17.0502235 C19.8612428,16.6038853 19.4993538,16.2452382 19.0499751,16.2452382 C18.6005965,16.2452382 18.2367191,16.6038853 18.2367191,17.0502235 L18.2367191,18.1557235 C16.7593372,18.3458853 15.468865,19.0296794 14.715261,20.0908412 C14.1336537,20.9115912 13.9457498,21.8111647 14.1694449,22.6939882 C14.4508036,23.7935765 15.3435957,24.7640912 16.6857664,25.4271941 C17.1977796,25.6784441 17.7078045,25.8439735 18.2029163,26.0035912 L18.2367191,26.0134441 L18.2367191,26.2518853 L18.2367191,31.0147971 C17.0188235,30.8266059 16.0256172,30.2433118 15.6219718,29.4136941 C15.578227,29.3210765 15.5145982,29.2461941 15.4450041,29.1801794 C15.2073902,28.9594735 14.8504722,28.8895176 14.5382933,29.0363265 C14.1336537,29.2284588 13.9646396,29.7092824 14.1604971,30.1102971 C14.8226346,31.4798559 16.3785584,32.4237676 18.2367191,32.6405324 L18.2367191,33.7519441 C18.2367191,34.1963118 18.6005965,34.5569294 19.0499751,34.5569294 C19.4993538,34.5569294 19.8612428,34.1963118 19.8612428,33.7519441 L19.8612428,32.6218118 C21.3376305,32.4296794 22.6290969,31.7695324 23.3817067,30.7093559 C23.9643082,29.8895912 24.1532063,28.9900176 23.9275228,28.1062088 C23.646164,27.0066206 22.7543662,26.0361059 21.4112013,25.3739882 Z M18.2367191,24.2970618 C17.9563546,24.2005029 17.6670423,24.1118265 17.4105385,23.9847235 C16.5137697,23.5442971 15.9063132,22.9275029 15.7452527,22.2988853 C15.6358906,21.8732382 15.7343165,21.4544882 16.0464954,21.0160324 C16.5038277,20.3726353 17.2981939,19.9529 18.2367191,19.7903265 L18.2367191,24.2970618 Z M22.0524606,29.7831794 C21.5951284,30.4285471 20.8037448,30.8541941 19.8612428,31.0147971 L19.8612428,26.4844147 C20.1485667,26.5829441 20.4269428,26.6864 20.6884176,26.8144882 C21.5861806,27.2578706 22.1926429,27.8726941 22.3527092,28.5022971 C22.4620713,28.9269588 22.3636454,29.3476794 22.0524606,29.7831794 Z" id="Fill-8" fill="#11533D"></path>
                <path d="M50.8633969,26.6743794 L28.9909859,26.6743794 C28.4421872,26.6743794 27.9967854,26.2329676 27.9967854,25.6890853 C27.9967854,25.1442176 28.4421872,24.7037912 28.9909859,24.7037912 L50.8633969,24.7037912 C51.4121955,24.7037912 51.8575973,25.1442176 51.8575973,25.6890853 C51.8575973,26.2329676 51.4121955,26.6743794 50.8633969,26.6743794" id="Fill-9" fill="#9ED47B"></path>
                <path d="M50.8633969,30.6155559 L28.9909859,30.6155559 C28.4421872,30.6155559 27.9967854,30.1741441 27.9967854,29.6302618 C27.9967854,29.0853941 28.4421872,28.6449676 28.9909859,28.6449676 L50.8633969,28.6449676 C51.4121955,28.6449676 51.8575973,29.0853941 51.8575973,29.6302618 C51.8575973,30.1741441 51.4121955,30.6155559 50.8633969,30.6155559" id="Fill-10" fill="#9ED47B"></path>
                <path d="M50.8633969,34.5567324 L28.9909859,34.5567324 C28.4421872,34.5567324 27.9967854,34.1153206 27.9967854,33.5714382 C27.9967854,33.0265706 28.4421872,32.5861441 28.9909859,32.5861441 L50.8633969,32.5861441 C51.4121955,32.5861441 51.8575973,33.0265706 51.8575973,33.5714382 C51.8575973,34.1153206 51.4121955,34.5567324 50.8633969,34.5567324" id="Fill-11" fill="#9ED47B"></path>
                <path d="M32.5090638,0.539058824 L32.5090638,8.09330882" id="Stroke-12" stroke="#509E2F" stroke-width="2.25352113" stroke-linecap="round"></path>
                <path d="M22.3956587,4.31618382 L27.7852196,9.65746324" id="Stroke-13" stroke="#509E2F" stroke-width="2.25352113" stroke-linecap="round"></path>
                <path d="M42.6223695,4.31618382 L37.2328086,9.65746324" id="Stroke-14" stroke="#509E2F" stroke-width="2.25352113" stroke-linecap="round"></path>
                <path d="M7.98850041,47.3511706 L12.2138525,47.3511706" id="Stroke-15" stroke="#509E2F" stroke-width="1.12676056" stroke-linecap="round"></path>
                <path d="M10.1011765,45.2574206 L10.1011765,49.4449206" id="Stroke-16" stroke="#509E2F" stroke-width="1.12676056" stroke-linecap="round"></path>
                <path d="M57.6985253,24.7037912 L61.9238774,24.7037912" id="Stroke-17" stroke="#509E2F" stroke-width="1.12676056" stroke-linecap="round"></path>
                <path d="M59.8112013,22.6100412 L59.8112013,26.7975412" id="Stroke-18" stroke="#509E2F" stroke-width="1.12676056" stroke-linecap="round"></path>
            </g>
        </g>
        <rect id="Rectangle" fill-rule="nonzero" x="0" y="0" width="70" height="60"></rect>
    </g>
</svg>