<?xml version="1.0" encoding="UTF-8"?>
<svg width="70px" height="60px" viewBox="0 0 70 60" version="1.1" xmlns="http://www.w3.org/2000/svg" xmlns:xlink="http://www.w3.org/1999/xlink">
    <!-- Generator: Sketch 52.2 (67145) - http://www.bohemiancoding.com/sketch -->
    <title>settings-lg</title>
    <desc>Created with Sketch.</desc>
    <defs>
        <polygon id="path-1" points="0 0.736542518 63.5442759 0.736542518 63.5442759 46.4 0 46.4"></polygon>
        <polygon id="path-3" points="0.997406897 0.699314286 35.6820966 0.699314286 35.6820966 35.4251848 0.997406897 35.4251848"></polygon>
    </defs>
    <g id="settings-lg" stroke="none" stroke-width="1" fill="none" fill-rule="evenodd">
        <g id="Group-22" transform="translate(3.000000, 3.000000)">
            <g id="Group-21">
                <g id="Group-3" transform="translate(0.000000, 5.928926)">
                    <mask id="mask-2" fill="white">
                        <use xlink:href="#path-1"></use>
                    </mask>
                    <g id="Clip-2"></g>
                    <path d="M62.9523862,8.21567238 C65.0610759,13.95712 61.1714207,19.7946819 57.1008,23.8845105 C53.0312828,27.9732343 53.4958345,35.4303771 51.810869,39.1280152 C50.1270069,42.8256533 39.5394207,51.3124343 28.1374897,42.5980724 C16.7355586,33.8826057 17.8875586,28.5156724 12.6914207,26.5768152 C7.49638621,24.6368533 -5.08182069,18.7330057 2.22742069,6.11441524 C7.56590345,-3.10150857 19.5625931,4.19654857 30.7372138,3.62317714 C34.8652138,3.41106286 44.4431448,2.12070095 48.1032828,1.21811048 C54.1270069,-0.266689524 60.5126621,1.5771581 62.9523862,8.21567238" id="Fill-1" fill="#E1F3F0" mask="url(#mask-2)"></path>
                </g>
                <path d="M40.1506207,43.3242324 L44.8402759,43.3242324" id="Stroke-4" stroke="#509E2F" stroke-width="1.20689655" stroke-linecap="round"></path>
                <path d="M42.4954483,40.9766133 L42.4954483,45.6718514" id="Stroke-6" stroke="#509E2F" stroke-width="1.20689655" stroke-linecap="round"></path>
                <path d="M8.72176552,19.8970933 L13.4114207,19.8970933" id="Stroke-8" stroke="#509E2F" stroke-width="1.20689655" stroke-linecap="round"></path>
                <path d="M11.0665931,17.5494743 L11.0665931,22.2447124" id="Stroke-10" stroke="#509E2F" stroke-width="1.20689655" stroke-linecap="round"></path>
                <g id="Group-14" transform="translate(18.758621, 0.405116)">
                    <mask id="mask-4" fill="white">
                        <use xlink:href="#path-3"></use>
                    </mask>
                    <g id="Clip-13"></g>
                    <path d="M18.3392,26.6600038 C13.5965793,26.6600038 9.75216552,22.8110133 9.75216552,18.0627467 C9.75216552,13.31448 13.5965793,9.46548952 18.3392,9.46548952 C23.0818207,9.46548952 26.9262345,13.31448 26.9262345,18.0627467 C26.9262345,22.8110133 23.0818207,26.6600038 18.3392,26.6600038 Z M35.6820966,20.9561181 L35.6820966,15.1682705 L31.2815448,14.2579467 C31.0100966,13.3321562 30.6404414,12.4384038 30.1780966,11.5921562 L32.6454069,7.83375619 L28.5604414,3.73950857 L24.8054069,6.20975619 C23.961269,5.74686095 23.0674759,5.37676571 22.1427862,5.10609905 L21.2302345,0.69920381 L15.449269,0.69920381 L14.5400276,5.10609905 C13.6153379,5.37676571 12.7215448,5.74686095 11.8774069,6.20975619 L8.12237241,3.73950857 L4.03409655,7.8304419 L6.50030345,11.5877371 C6.03906207,12.4350895 5.6694069,13.3288419 5.39795862,14.2546324 L0.997406897,15.1682705 L0.997406897,20.9561181 L5.39795862,21.8664419 C5.6694069,22.7933371 6.03906207,23.6870895 6.50030345,24.5333371 L4.03409655,28.2917371 L8.11906207,32.38488 L11.8729931,29.9157371 C12.7182345,30.3786324 13.6109241,30.7476229 14.5356138,31.0193943 L15.449269,35.4251848 L21.2302345,35.4251848 L22.1394759,31.0193943 C23.0641655,30.7476229 23.9568552,30.3786324 24.8020966,29.9157371 L28.5560276,32.38488 L32.6454069,28.2950514 L30.1780966,24.5366514 C30.6404414,23.6904038 31.0100966,22.7966514 31.2815448,21.870861 L35.6820966,20.9561181 Z" id="Fill-12" fill="#ADDB8F" mask="url(#mask-4)"></path>
                </g>
                <path d="M37.0978207,23.0145105 C34.5907862,23.0145105 32.557131,20.9784343 32.557131,18.4673105 C32.557131,15.9561867 34.5907862,13.9212152 37.0978207,13.9212152 C39.6059586,13.9212152 41.6396138,15.9561867 41.6396138,18.4673105 C41.6396138,20.9784343 39.6059586,23.0145105 37.0978207,23.0145105 M37.0978207,9.87005333 C32.3552,9.87005333 28.5107862,13.7190438 28.5107862,18.4673105 C28.5107862,23.2155771 32.3552,27.0656724 37.0978207,27.0656724 C41.8404414,27.0656724 45.6848552,23.2155771 45.6848552,18.4673105 C45.6848552,13.7190438 41.8404414,9.87005333 37.0978207,9.87005333" id="Fill-15" fill="#73C241"></path>
                <path d="M19.046069,44.0901638 C17.3688276,42.4109257 17.3688276,39.6898971 19.046069,38.010659 C20.7233103,36.3325257 23.4411034,36.3325257 25.1183448,38.010659 C26.7944828,39.6898971 26.7944828,42.4109257 25.1183448,44.0901638 C23.4411034,45.7694019 20.7233103,45.7694019 19.046069,44.0901638 Z M27.1917241,48.2120305 L29.2353103,46.1660114 L28.0005517,44.2868114 C28.2322759,43.8625829 28.4176552,43.416259 28.5522759,42.9533638 L30.7514483,42.4982019 L30.7525517,39.6048305 L28.5544828,39.1485638 C28.4187586,38.6856686 28.2333793,38.2393448 28.0027586,37.816221 L29.2353103,35.9348114 L27.1917241,33.8887924 L25.3147586,35.125021 C24.8921379,34.893021 24.4452414,34.707421 23.9828966,34.57264 L23.5282759,32.3708495 L20.6372414,32.3697448 L20.1826207,34.5704305 C19.7202759,34.7063162 19.2744828,34.8919162 18.8518621,35.1228114 L16.9726897,33.8887924 L14.9291034,35.9348114 L16.1638621,37.8151162 C15.9321379,38.23824 15.7478621,38.6845638 15.6121379,39.147459 L13.4129655,39.602621 L13.4118621,42.4970971 L15.6110345,42.952259 C15.7456552,43.4151543 15.9310345,43.8614781 16.1627586,44.2846019 L14.9291034,46.1660114 L16.9726897,48.2120305 L18.8496552,46.9769067 C19.2733793,47.2078019 19.7191724,47.3934019 20.1815172,47.5292876 L20.6361379,49.7299733 L23.5271724,49.7321829 L23.9817931,47.5303924 C24.4441379,47.3945067 24.889931,47.2089067 25.3136552,46.9780114 L27.1917241,48.2120305 Z" id="Fill-17" fill="#11533D"></path>
                <path d="M20.477131,42.6579505 C19.5899586,41.7697219 19.5899586,40.3313219 20.477131,39.4430933 C21.3632,38.5548648 22.8009931,38.5548648 23.6881655,39.4430933 C24.5742345,40.3313219 24.5742345,41.7697219 23.6881655,42.6579505 C22.8009931,43.546179 21.3632,43.546179 20.477131,42.6579505 M25.1182345,38.0102171 C23.4420966,36.3320838 20.7232,36.3320838 19.0459586,38.0102171 C17.3698207,39.6894552 17.3698207,42.4115886 19.0459586,44.0897219 C20.7232,45.76896 23.4420966,45.76896 25.1182345,44.0897219 C26.7954759,42.4115886 26.7954759,39.6894552 25.1182345,38.0102171" id="Fill-19" fill="#1D7E66"></path>
            </g>
        </g>
        <rect id="Rectangle" fill-rule="nonzero" x="0" y="0" width="70" height="60"></rect>
    </g>
</svg>