<?xml version="1.0" encoding="UTF-8"?>
<svg width="70px" height="60px" viewBox="0 0 70 60" version="1.1" xmlns="http://www.w3.org/2000/svg" xmlns:xlink="http://www.w3.org/1999/xlink">
    <!-- Generator: Sketch 52.2 (67145) - http://www.bohemiancoding.com/sketch -->
    <title>team-news-lg</title>
    <desc>Created with Sketch.</desc>
    <defs>
        <polygon id="path-1" points="0.000212897466 0.386441686 63.9296241 0.386441686 63.9296241 44.6060606 0.000212897466 44.6060606"></polygon>
        <polygon id="path-3" points="0 47.0710303 63.9301818 47.0710303 63.9301818 0 0 0"></polygon>
    </defs>
    <g id="team-news-lg" stroke="none" stroke-width="1" fill="none" fill-rule="evenodd">
        <g id="Group-47" transform="translate(3.000000, 8.000000)">
            <g id="Group-3" transform="translate(0.000000, 2.464970)">
                <mask id="mask-2" fill="white">
                    <use xlink:href="#path-1"></use>
                </mask>
                <g id="Clip-2"></g>
                <path d="M35.299297,0.960193939 C38.6515394,1.62637576 44.7111758,9.81158788 53.0224485,11.5958303 C58.7940848,12.8341333 62.863903,18.5175273 63.4622061,20.6188606 C65.3802667,27.3553455 61.0689939,32.3512242 56.4668121,34.6174061 C51.8656,36.8845576 45.2493576,40.8321939 36.5405091,43.8130424 C32.7567515,45.1085576 27.1616,45.2317091 21.4471758,40.9534061 C17.8816,38.2857697 10.9569939,37.5662545 8.91384242,37.8067394 C0.791660606,38.7609212 -3.68252121,30.0801939 3.87723636,25.4217697 C12.4096,20.1621333 17.6071758,16.0166788 18.2685091,12.0399515 C19.8365091,2.60770909 24.6306909,-1.15956364 35.299297,0.960193939" id="Fill-1" fill="#E1F3F0" mask="url(#mask-2)"></path>
            </g>
            <path d="M50.7870061,8.6505697 L54.9082182,8.6505697" id="Stroke-4" stroke="#509E2F" stroke-linecap="round"></path>
            <path d="M52.8476121,6.58996364 L52.8476121,10.7111758" id="Stroke-6" stroke="#509E2F" stroke-linecap="round"></path>
            <path d="M12.608,40.5336242 L16.7292121,40.5336242" id="Stroke-8" stroke="#509E2F" stroke-linecap="round"></path>
            <path d="M14.6686061,38.4730182 L14.6686061,42.5942303" id="Stroke-10" stroke="#509E2F" stroke-linecap="round"></path>
            <path d="M15.9138909,0 L15.9138909,31.2077576 C15.9138909,33.1995152 14.2983758,34.8150303 12.3056485,34.8150303 L37.251103,34.8150303 C40.3599515,34.8150303 42.8801939,32.2947879 42.8801939,29.1859394 L42.8801939,0 L15.9138909,0 Z" id="Fill-12" fill="#EEF8E8"></path>
            <path d="M38.6515394,7.99233939 L20.0876606,7.99233939 C19.0830545,7.99233939 18.2675394,7.17779394 18.2675394,6.17221818 L18.2675394,5.9113697 C18.2675394,4.90579394 19.0830545,4.09124848 20.0876606,4.09124848 L38.6515394,4.09124848 C39.6571152,4.09124848 40.4716606,4.90579394 40.4716606,5.9113697 L40.4716606,6.17221818 C40.4716606,7.17779394 39.6571152,7.99233939 38.6515394,7.99233939" id="Fill-14" fill="#ADDB8F"></path>
            <mask id="mask-4" fill="white">
                <use xlink:href="#path-3"></use>
            </mask>
            <g id="Clip-17"></g>
            <polygon id="Fill-16" fill="#ADDB8F" mask="url(#mask-4)" points="18.8169697 22.9556364 26.7966061 22.9556364 26.7966061 11.0652121 18.8169697 11.0652121"></polygon>
            <path d="M39.3807515,13.2466424 L29.3686303,13.2466424 C28.8323879,13.2466424 28.3989333,12.8122182 28.3989333,12.2769455 C28.3989333,11.740703 28.8323879,11.3072485 29.3686303,11.3072485 L39.3807515,11.3072485 C39.9169939,11.3072485 40.3504485,11.740703 40.3504485,12.2769455 C40.3504485,12.8122182 39.9169939,13.2466424 39.3807515,13.2466424" id="Fill-18" fill="#88CB5E" mask="url(#mask-4)"></path>
            <path d="M38.3987394,16.4446061 L29.3679515,16.4446061 C28.8326788,16.4446061 28.3982545,16.0101818 28.3982545,15.4749091 C28.3982545,14.9396364 28.8326788,14.5052121 29.3679515,14.5052121 L38.3987394,14.5052121 C38.9340121,14.5052121 39.3684364,14.9396364 39.3684364,15.4749091 C39.3684364,16.0101818 38.9340121,16.4446061 38.3987394,16.4446061" id="Fill-19" fill="#88CB5E" mask="url(#mask-4)"></path>
            <path d="M35.0824727,19.7575758 L29.3680485,19.7575758 C28.8327758,19.7575758 28.3983515,19.3231515 28.3983515,18.7878788 C28.3983515,18.2526061 28.8327758,17.8181818 29.3680485,17.8181818 L35.0824727,17.8181818 C35.6177455,17.8181818 36.0521697,18.2526061 36.0521697,18.7878788 C36.0521697,19.3231515 35.6177455,19.7575758 35.0824727,19.7575758" id="Fill-20" fill="#88CB5E" mask="url(#mask-4)"></path>
            <path d="M12.3059394,34.4663273 L40.5027879,34.4663273" id="Stroke-21" stroke="#ADDB8F" mask="url(#mask-4)"></path>
            <path d="M12.3059394,11.0653091 L8.69769697,11.0653091 L8.69769697,31.2068848 C8.69769697,33.1996121 10.3132121,34.8151273 12.3059394,34.8151273 C14.2986667,34.8151273 15.9141818,33.1996121 15.9141818,31.2068848 L15.9141818,11.0653091 L12.3059394,11.0653091 Z" id="Fill-22" fill="#49A58F" mask="url(#mask-4)"></path>
            <path d="M42.1231515,44.9426424 L27.2693333,44.9426424 L27.2693333,37.5584 C27.2693333,33.9773091 30.1735758,31.0740364 33.7546667,31.0740364 L35.6387879,31.0740364 C39.2198788,31.0740364 42.1231515,33.9773091 42.1231515,37.5584 L42.1231515,44.9426424 Z" id="Fill-23" fill="#1D7E66" mask="url(#mask-4)"></path>
            <path d="M34.9261576,34.2603636 L34.4471273,34.2603636 C33.6102788,34.2603636 32.9314909,33.5825455 32.9314909,32.745697 L32.9314909,28.713697 L36.4408242,28.713697 L36.4408242,32.745697 C36.4408242,33.5825455 35.7630061,34.2603636 34.9261576,34.2603636" id="Fill-24" fill="#A6D8C7" mask="url(#mask-4)"></path>
            <path d="M34.4470303,34.2603636 C33.6101818,34.2603636 32.9323636,33.5825455 32.9323636,32.745697 L32.9323636,28.713697 L36.441697,28.713697 L36.441697,31.1980606 L34.4470303,34.2603636 Z" id="Fill-25" fill="#49A58F" mask="url(#mask-4)"></path>
            <path d="M34.8267636,22.1741576 C32.256097,22.1741576 30.1702788,24.2590061 30.1702788,26.8306424 C30.1702788,27.0827636 30.2061576,27.3242182 30.2439758,27.5656727 L37.7154909,23.2049455 C36.9203394,22.5697939 35.9244606,22.1741576 34.8267636,22.1741576" id="Fill-26" fill="#0F4827" mask="url(#mask-4)"></path>
            <path d="M31.2444121,27.4791758 C31.2444121,28.0726303 30.7634424,28.5526303 30.1709576,28.5526303 C29.577503,28.5526303 29.0965333,28.0726303 29.0965333,27.4791758 C29.0965333,26.8857212 29.577503,26.4057212 30.1709576,26.4057212 C30.7634424,26.4057212 31.2444121,26.8857212 31.2444121,27.4791758" id="Fill-27" fill="#A6D8C7" mask="url(#mask-4)"></path>
            <path d="M39.8419394,27.7433212 L39.3609697,27.7433212 C39.0419394,27.7433212 38.7830303,27.4844121 38.7830303,27.1653818 L38.7830303,26.9830788 C38.7830303,26.6640485 39.0419394,26.4051394 39.3609697,26.4051394 L39.8419394,26.4051394 C40.1609697,26.4051394 40.4198788,26.6640485 40.4198788,26.9830788 L40.4198788,27.1653818 C40.4198788,27.4844121 40.1609697,27.7433212 39.8419394,27.7433212" id="Fill-28" fill="#A6D8C7" mask="url(#mask-4)"></path>
            <path d="M34.4470303,34.2603636 C33.6101818,34.2603636 32.9323636,33.5825455 32.9323636,32.745697 L32.9323636,31.1311515 C29.7401212,31.5364848 27.2693333,34.2564848 27.2693333,37.558303 L27.2693333,44.9425455 L34.4470303,34.2603636 Z" id="Fill-29" fill="#1A634E" mask="url(#mask-4)"></path>
            <path d="M36.5976242,28.5903515 L39.1333818,28.5903515 C39.3564121,28.0463515 39.4834424,27.4538667 39.4834424,26.8303515 C39.4834424,25.3564121 38.7852606,24.0589576 37.7156848,23.2056242 L30.2441697,27.5653818 C30.5981091,29.7850182 32.5064727,31.4868364 34.8269576,31.4868364 C36.0662303,31.4868364 37.1862303,30.9942303 38.0211394,30.204897 C37.2192,30.1001697 36.5976242,29.4204121 36.5976242,28.5903515" id="Fill-30" fill="#A6D8C7" mask="url(#mask-4)"></path>
            <path d="M39.1335758,28.5903515 L36.5978182,28.5903515 C36.5978182,29.4204121 37.2184242,30.1001697 38.0213333,30.204897 C38.4974545,29.7530182 38.8814545,29.2080485 39.1335758,28.5903515" id="Fill-31" fill="#1D7E66" mask="url(#mask-4)"></path>
            <path d="M36.9990788,26.5136485 C36.9990788,26.7560727 36.8032,26.9529212 36.5598061,26.9529212 C36.3173818,26.9529212 36.1205333,26.7560727 36.1205333,26.5136485 C36.1205333,26.2712242 36.3173818,26.0743758 36.5598061,26.0743758 C36.8032,26.0743758 36.9990788,26.2712242 36.9990788,26.5136485" id="Fill-32" fill="#0F4827" mask="url(#mask-4)"></path>
            <polygon id="Fill-33" fill="#0F4827" mask="url(#mask-4)" points="38.9507879 44.9425455 39.3163636 44.9425455 39.3163636 37.4283636 38.9507879 37.4283636"></polygon>
            <polygon id="Fill-34" fill="#0F4827" mask="url(#mask-4)" points="30.4921212 44.9425455 30.857697 44.9425455 30.857697 37.4283636 30.4921212 37.4283636"></polygon>
            <path d="M52.2632727,22.1741576 L51.4041212,22.1741576 C50.6138182,22.1741576 49.8797576,22.3845818 49.232,22.7375515 C48.9789091,22.8742788 48.7374545,23.0274909 48.5144242,23.2049455 L50.3287273,24.2638545 L50.4838788,34.2604606 L57.3173333,34.2604606 L57.3173333,27.2282182 C57.3173333,24.4364606 55.0550303,22.1741576 52.2632727,22.1741576" id="Fill-35" fill="#0F4827" mask="url(#mask-4)"></path>
            <path d="M44.1080242,44.9426424 L58.9608727,44.9426424 L58.9608727,37.5584 C58.9608727,33.9773091 56.0576,31.0740364 52.4765091,31.0740364 L50.5923879,31.0740364 C47.011297,31.0740364 44.1080242,33.9773091 44.1080242,37.5584 L44.1080242,44.9426424 Z" id="Fill-36" fill="#1D7E66" mask="url(#mask-4)"></path>
            <path d="M51.3050182,34.2603636 L51.7840485,34.2603636 C52.620897,34.2603636 53.2996848,33.5825455 53.2996848,32.745697 L53.2996848,28.713697 L49.7903515,28.713697 L49.7903515,32.745697 C49.7903515,33.5825455 50.4681697,34.2603636 51.3050182,34.2603636" id="Fill-37" fill="#58BAA5" mask="url(#mask-4)"></path>
            <path d="M51.7841455,34.2603636 C52.6209939,34.2603636 53.2988121,33.5825455 53.2988121,32.745697 L53.2988121,28.713697 L49.7894788,28.713697 L49.7894788,31.1980606 L51.7841455,34.2603636 Z" id="Fill-38" fill="#49A58F" mask="url(#mask-4)"></path>
            <path d="M54.9867636,27.4791758 C54.9867636,28.0726303 55.4667636,28.5526303 56.0602182,28.5526303 C56.6536727,28.5526303 57.1346424,28.0726303 57.1346424,27.4791758 C57.1346424,26.8857212 56.6536727,26.4057212 56.0602182,26.4057212 C55.4667636,26.4057212 54.9867636,26.8857212 54.9867636,27.4791758" id="Fill-39" fill="#A6D8C7" mask="url(#mask-4)"></path>
            <path d="M46.3892364,27.7433212 L46.8702061,27.7433212 C47.1882667,27.7433212 47.4481455,27.4844121 47.4481455,27.1653818 L47.4481455,26.9830788 C47.4481455,26.6640485 47.1882667,26.4051394 46.8702061,26.4051394 L46.3892364,26.4051394 C46.0702061,26.4051394 45.811297,26.6640485 45.811297,26.9830788 L45.811297,27.1653818 C45.811297,27.4844121 46.0702061,27.7433212 46.3892364,27.7433212" id="Fill-40" fill="#A6D8C7" mask="url(#mask-4)"></path>
            <path d="M51.7841455,34.2603636 C52.6209939,34.2603636 53.2988121,33.5825455 53.2988121,32.745697 L53.2988121,31.1311515 C56.4910545,31.5364848 58.9608727,34.2564848 58.9608727,37.558303 L58.9608727,44.9425455 L51.7841455,34.2603636 Z" id="Fill-41" fill="#1A634E" mask="url(#mask-4)"></path>
            <path d="M49.6335515,28.5903515 L47.0977939,28.5903515 C46.8747636,28.0463515 46.7467636,27.4538667 46.7467636,26.8303515 C46.7467636,25.3564121 47.4459152,24.0589576 48.5145212,23.2056242 L55.9870061,27.5653818 C55.6330667,29.7850182 53.724703,31.4868364 51.4042182,31.4868364 C50.1649455,31.4868364 49.0449455,30.9942303 48.2100364,30.204897 C49.0119758,30.1001697 49.6335515,29.4204121 49.6335515,28.5903515" id="Fill-42" fill="#A6D8C7" mask="url(#mask-4)"></path>
            <path d="M47.0976,28.5903515 L49.6333576,28.5903515 C49.6333576,29.4204121 49.0127515,30.1001697 48.2098424,30.204897 C47.7337212,29.7530182 47.3497212,29.2080485 47.0976,28.5903515" id="Fill-43" fill="#1D7E66" mask="url(#mask-4)"></path>
            <path d="M49.232097,26.5136485 C49.232097,26.7560727 49.4279758,26.9529212 49.6713697,26.9529212 C49.9137939,26.9529212 50.1106424,26.7560727 50.1106424,26.5136485 C50.1106424,26.2712242 49.9137939,26.0743758 49.6713697,26.0743758 C49.4279758,26.0743758 49.232097,26.2712242 49.232097,26.5136485" id="Fill-44" fill="#0F4827" mask="url(#mask-4)"></path>
            <polygon id="Fill-45" fill="#0F4827" mask="url(#mask-4)" points="46.9139394 44.9425455 47.2804848 44.9425455 47.2804848 37.4283636 46.9139394 37.4283636"></polygon>
            <polygon id="Fill-46" fill="#0F4827" mask="url(#mask-4)" points="55.3735758 44.9425455 55.7391515 44.9425455 55.7391515 37.4283636 55.3735758 37.4283636"></polygon>
        </g>
        <rect id="Rectangle" fill-rule="nonzero" x="0" y="0" width="70" height="60"></rect>
    </g>
</svg>