<?xml version="1.0" encoding="UTF-8"?>
<svg width="70px" height="60px" viewBox="0 0 70 60" version="1.1" xmlns="http://www.w3.org/2000/svg" xmlns:xlink="http://www.w3.org/1999/xlink">
    <!-- Generator: Sketch 52.2 (67145) - http://www.bohemiancoding.com/sketch -->
    <title>team-time-off-lg</title>
    <desc>Created with Sketch.</desc>
    <defs>
        <polygon id="path-1" points="0 48.3830857 63.215746 48.3830857 63.215746 0.000101587302 0 0.000101587302"></polygon>
    </defs>
    <g id="team-time-off-lg" stroke="none" stroke-width="1" fill="none" fill-rule="evenodd">
        <g id="Group-68" transform="translate(3.000000, 6.000000)">
            <path d="M39.7473524,4.14039365 C45.4433524,7.55982222 45.0136381,11.689346 45.4433524,14.2452825 C46.2438603,18.9985524 49.2051302,20.7742984 52.2679873,22.2859175 C57.3057016,24.7727746 60.0444952,29.3188063 60.0444952,31.5689651 C60.0444952,38.785727 54.8848762,42.5190603 50.1651302,43.465854 C45.4433524,44.4136635 38.4805587,46.4576 29.8822095,46.953346 C26.1458286,47.1676952 21.0817016,45.7119492 17.0364952,39.8595048 C14.5130667,36.2084571 8.46862222,33.5417905 6.56893968,33.2035048 C-0.98407619,31.8564571 -2.7831873,21.9923302 5.21071746,19.5095365 C14.2337016,16.7067429 14.7771937,12.3557587 16.3904,8.60312381 C20.2182095,-0.301003175 30.8127492,-1.22138413 39.7473524,4.14039365" id="Fill-1" fill="#E3F5EF"></path>
            <polygon id="Fill-3" fill="#11533D" points="23.6640508 35.5590095 21.0451302 27.1922794 18.0645587 29.995073 21.5733841 37.6385016"></polygon>
            <polygon id="Fill-5" fill="#1D7E66" points="20.1878349 39.0183619 21.5734857 37.6388063 18.0646603 29.9953778 16.3905016 31.5689651"></polygon>
            <path d="M35.5003937,23.7143365 L33.265473,21.4794159 L36.8535365,17.8913524 C37.3970286,17.3478603 38.2788063,17.3478603 38.8233143,17.8913524 L39.0884571,18.1564952 C39.6319492,18.7010032 39.6319492,19.582781 39.0884571,20.126273 L35.5003937,23.7143365 Z" id="Fill-7" fill="#11533D"></path>
            <polygon id="Fill-9" fill="#88CB5E" points="39.7473524 34.8760381 34.6161778 14.661181 28.0871619 20.7259429 37.7349079 36.8884825"></polygon>
            <polygon id="Fill-11" fill="#1D7E66" points="37.7345016 36.8888889 28.0877714 20.7263492 26.0032 22.6615873 36.218819 38.4045714"></polygon>
            <polygon id="Fill-13" fill="#11533D" points="8.66996825 20.5650286 17.0356825 23.1839492 14.2339048 26.1645206 6.58946032 22.6546794"></polygon>
            <polygon id="Fill-15" fill="#1D7E66" points="5.21071746 24.0407365 6.58925714 22.6550857 14.2337016 26.164927 12.6601143 27.8380698"></polygon>
            <path d="M20.5142349,8.72817778 L22.7491556,10.9630984 L26.337219,7.37503492 C26.881727,6.83154286 26.881727,5.94976508 26.337219,5.40525714 L26.0720762,5.14011429 C25.5285841,4.59662222 24.6457905,4.59662222 24.1022984,5.14011429 L20.5142349,8.72817778 Z" id="Fill-17" fill="#11533D"></path>
            <polygon id="Fill-19" fill="#88CB5E" points="9.35253333 4.4816254 29.5673905 9.6128 23.5036444 16.1418159 7.34008889 6.49406984"></polygon>
            <polygon id="Fill-21" fill="#1D7E66" points="7.33968254 6.49457778 23.5032381 16.1413079 21.5669841 18.2248635 5.824 8.01026032"></polygon>
            <path d="M11.5995429,32.6295365 C10.5816381,31.6116317 10.5521778,29.9720127 11.5314794,28.9175365 L36.1521778,2.41239365 C37.4606222,1.03994921 39.222146,0.187631746 41.110654,0.0129015873 C42.8904635,-0.152685714 44.3817651,1.33963175 44.2161778,3.1184254 C44.0424635,5.00693333 43.1891302,6.76744127 41.8156698,8.07690159 L15.3115429,32.6976 C14.2570667,33.6769016 12.6174476,33.6464254 11.5995429,32.6295365" id="Fill-23" fill="#ADDB8F"></path>
            <path d="M49.8248127,15.1919746 L54.142273,15.1919746" id="Stroke-25" stroke="#509E2F" stroke-linecap="round"></path>
            <path d="M51.9835429,13.0332444 L51.9835429,17.3507048" id="Stroke-27" stroke="#509E2F" stroke-linecap="round"></path>
            <path d="M9.65414603,42.6324317 L13.9716063,42.6324317" id="Stroke-29" stroke="#509E2F" stroke-linecap="round"></path>
            <path d="M11.8128762,40.4737016 L11.8128762,44.7911619" id="Stroke-31" stroke="#509E2F" stroke-linecap="round"></path>
            <path d="M45.5757206,48.3829841 L30.0145778,48.3829841 L30.0145778,40.6471111 C30.0145778,36.8954921 33.0561016,33.8539683 36.8087365,33.8539683 L38.7815619,33.8539683 C42.5341968,33.8539683 45.5757206,36.8954921 45.5757206,40.6471111 L45.5757206,48.3829841 Z" id="Fill-33" fill="#1D7E66"></path>
            <path d="M38.0361143,37.1920254 L37.5332571,37.1920254 C36.6575746,37.1920254 35.9454476,36.4819302 35.9454476,35.6052317 L35.9454476,31.3812317 L39.6229079,31.3812317 L39.6229079,35.6052317 C39.6229079,36.4819302 38.9117968,37.1920254 38.0361143,37.1920254" id="Fill-35" fill="#A6D8C7"></path>
            <path d="M37.5331556,37.1920254 C36.657473,37.1920254 35.9463619,36.4819302 35.9463619,35.6052317 L35.9463619,31.3812317 L39.6238222,31.3812317 L39.6238222,33.9838984 L37.5331556,37.1920254 Z" id="Fill-37" fill="#49A58F"></path>
            <path d="M37.9318857,24.5302857 C35.2377905,24.5302857 33.0536635,26.7144127 33.0536635,29.4085079 C33.0536635,29.6726349 33.0902349,29.9255873 33.1308698,30.1785397 L40.9581714,25.6101587 C40.1241397,24.9447619 39.081854,24.5302857 37.9318857,24.5302857" id="Fill-39" fill="#0F4827"></path>
            <path d="M34.178946,30.0878222 C34.178946,30.7095365 33.675073,31.2123937 33.0543746,31.2123937 C32.4316444,31.2123937 31.9277714,30.7095365 31.9277714,30.0878222 C31.9277714,29.4661079 32.4316444,28.9632508 33.0543746,28.9632508 C33.675073,28.9632508 34.178946,29.4661079 34.178946,30.0878222" id="Fill-41" fill="#A6D8C7"></path>
            <path d="M43.1848635,30.3646476 L42.6820063,30.3646476 C42.3477841,30.3646476 42.076546,30.0934095 42.076546,29.7591873 L42.076546,29.5682032 C42.076546,29.233981 42.3477841,28.9627429 42.6820063,28.9627429 L43.1848635,28.9627429 C43.5190857,28.9627429 43.7903238,29.233981 43.7903238,29.5682032 L43.7903238,29.7591873 C43.7903238,30.0934095 43.5190857,30.3646476 43.1848635,30.3646476" id="Fill-43" fill="#A6D8C7"></path>
            <path d="M37.5331556,37.1920254 C36.657473,37.1920254 35.9463619,36.4819302 35.9463619,35.6052317 L35.9463619,33.9138032 C32.6021079,34.3384381 30.0146794,37.1879619 30.0146794,40.6470095 L30.0146794,48.3828825 L37.5331556,37.1920254 Z" id="Fill-45" fill="#1A634E"></path>
            <path d="M39.7860571,31.2520127 L42.443581,31.2520127 C42.6772317,30.6821079 42.8103111,30.0614095 42.8103111,29.4082032 C42.8103111,27.8640762 42.0788825,26.5048381 40.9583746,25.6108698 L33.131073,30.1782349 C33.5018667,32.5035683 35.5011048,34.2864254 37.9320889,34.2864254 C39.2303746,34.2864254 40.4026921,33.7703619 41.2773587,32.9434413 C40.4382476,32.833727 39.7860571,32.1216 39.7860571,31.2520127" id="Fill-47" fill="#A6D8C7"></path>
            <path d="M42.4437841,31.2520127 L39.7862603,31.2520127 C39.7862603,32.1216 40.4374349,32.833727 41.2775619,32.9434413 C41.7773714,32.4700444 42.1786413,31.8991238 42.4437841,31.2520127" id="Fill-49" fill="#1D7E66"></path>
            <path d="M40.207746,29.076419 C40.207746,29.3303873 40.0015238,29.5366095 39.7475556,29.5366095 C39.4935873,29.5366095 39.2873651,29.3303873 39.2873651,29.076419 C39.2873651,28.8224508 39.4935873,28.6162286 39.7475556,28.6162286 C40.0015238,28.6162286 40.207746,28.8224508 40.207746,29.076419" id="Fill-51" fill="#0F4827"></path>
            <mask id="mask-2" fill="white">
                <use xlink:href="#path-1"></use>
            </mask>
            <g id="Clip-54"></g>
            <polygon id="Fill-53" fill="#0F4827" mask="url(#mask-2)" points="42.2521905 48.3830857 42.6351746 48.3830857 42.6351746 40.5110857 42.2521905 40.5110857"></polygon>
            <polygon id="Fill-55" fill="#0F4827" mask="url(#mask-2)" points="33.3907302 48.3830857 33.7737143 48.3830857 33.7737143 40.5110857 33.3907302 40.5110857"></polygon>
            <path d="M56.1988063,24.5302857 L55.297727,24.5302857 C54.4708063,24.5302857 53.7017905,24.7507302 53.0221714,25.1205079 C52.7580444,25.263746 52.5050921,25.424254 52.2714413,25.6101587 L54.1711238,26.7194921 L54.3346794,37.192127 L61.4935365,37.192127 L61.4935365,29.8250159 C61.4935365,26.9003175 59.1224889,24.5302857 56.1988063,24.5302857" id="Fill-56" fill="#0F4827" mask="url(#mask-2)"></path>
            <path d="M47.6540952,48.3829841 L63.2152381,48.3829841 L63.2152381,40.6471111 C63.2152381,36.8954921 60.1737143,33.8539683 56.4220952,33.8539683 L54.448254,33.8539683 C50.6966349,33.8539683 47.6540952,36.8954921 47.6540952,40.6471111 L47.6540952,48.3829841 Z" id="Fill-57" fill="#1D7E66" mask="url(#mask-2)"></path>
            <path d="M55.1938032,37.1920254 L55.6966603,37.1920254 C56.5723429,37.1920254 57.2844698,36.4819302 57.2844698,35.6052317 L57.2844698,31.3812317 L53.6070095,31.3812317 L53.6070095,35.6052317 C53.6070095,36.4819302 54.3181206,37.1920254 55.1938032,37.1920254" id="Fill-58" fill="#58BAA5" mask="url(#mask-2)"></path>
            <path d="M55.6967619,37.1920254 C56.5724444,37.1920254 57.2835556,36.4819302 57.2835556,35.6052317 L57.2835556,31.3812317 L53.6060952,31.3812317 L53.6060952,33.9838984 L55.6967619,37.1920254 Z" id="Fill-59" fill="#A6D8C7" mask="url(#mask-2)"></path>
            <path d="M59.0509714,30.0878222 C59.0509714,30.7095365 59.5548444,31.2123937 60.1755429,31.2123937 C60.798273,31.2123937 61.302146,30.7095365 61.302146,30.0878222 C61.302146,29.4661079 60.798273,28.9632508 60.1755429,28.9632508 C59.5548444,28.9632508 59.0509714,29.4661079 59.0509714,30.0878222" id="Fill-60" fill="#A6D8C7" mask="url(#mask-2)"></path>
            <path d="M50.045054,30.3646476 L50.5479111,30.3646476 C50.8821333,30.3646476 51.1533714,30.0934095 51.1533714,29.7591873 L51.1533714,29.5682032 C51.1533714,29.233981 50.8821333,28.9627429 50.5479111,28.9627429 L50.045054,28.9627429 C49.7108317,28.9627429 49.4395937,29.233981 49.4395937,29.5682032 L49.4395937,29.7591873 C49.4395937,30.0934095 49.7108317,30.3646476 50.045054,30.3646476" id="Fill-61" fill="#A6D8C7" mask="url(#mask-2)"></path>
            <path d="M55.6967619,37.1920254 C56.5724444,37.1920254 57.2835556,36.4819302 57.2835556,35.6052317 L57.2835556,33.9138032 C60.6278095,34.3384381 63.2152381,37.1879619 63.2152381,40.6470095 L63.2152381,48.3828825 L55.6967619,37.1920254 Z" id="Fill-62" fill="#1A634E" mask="url(#mask-2)"></path>
            <path d="M53.4438603,31.2520127 L50.7863365,31.2520127 C50.5526857,30.6821079 50.4196063,30.0614095 50.4196063,29.4082032 C50.4196063,27.8640762 51.1510349,26.5048381 52.2715429,25.6108698 L60.0988444,30.1782349 C59.7280508,32.5035683 57.7288127,34.2864254 55.2978286,34.2864254 C53.9995429,34.2864254 52.8272254,33.7703619 51.9525587,32.9434413 C52.7916698,32.833727 53.4438603,32.1216 53.4438603,31.2520127" id="Fill-63" fill="#A6D8C7" mask="url(#mask-2)"></path>
            <path d="M50.7861333,31.2520127 L53.4436571,31.2520127 C53.4436571,32.1216 52.7924825,32.833727 51.9523556,32.9434413 C51.452546,32.4700444 51.0512762,31.8991238 50.7861333,31.2520127" id="Fill-64" fill="#1D7E66" mask="url(#mask-2)"></path>
            <path d="M53.0221714,29.076419 C53.0221714,29.3303873 53.2283937,29.5366095 53.4823619,29.5366095 C53.7363302,29.5366095 53.9425524,29.3303873 53.9425524,29.076419 C53.9425524,28.8224508 53.7363302,28.6162286 53.4823619,28.6162286 C53.2283937,28.6162286 53.0221714,28.8224508 53.0221714,29.076419" id="Fill-65" fill="#0F4827" mask="url(#mask-2)"></path>
            <polygon id="Fill-66" fill="#0F4827" mask="url(#mask-2)" points="50.5945397 48.3830857 50.9775238 48.3830857 50.9775238 40.5110857 50.5945397 40.5110857"></polygon>
            <polygon id="Fill-67" fill="#0F4827" mask="url(#mask-2)" points="59.456 48.3830857 59.84 48.3830857 59.84 40.5110857 59.456 40.5110857"></polygon>
        </g>
        <rect id="Rectangle" fill-rule="nonzero" x="0" y="0" width="70" height="60"></rect>
    </g>
</svg>