<?xml version="1.0" encoding="UTF-8"?>
<svg width="70px" height="60px" viewBox="0 0 70 60" version="1.1" xmlns="http://www.w3.org/2000/svg" xmlns:xlink="http://www.w3.org/1999/xlink">
    <!-- Generator: Sketch 52.2 (67145) - http://www.bohemiancoding.com/sketch -->
    <title>team-schedule-lg</title>
    <desc>Created with Sketch.</desc>
    <defs>
        <polygon id="path-1" points="0 0.0419496433 63.6598957 0.0419496433 63.6598957 41.3538242 0 41.3538242"></polygon>
        <polygon id="path-3" points="0 49.4005169 63.6603077 49.4005169 63.6603077 0.000393846154 0 0.000393846154"></polygon>
    </defs>
    <g id="team-schedule-lg" stroke="none" stroke-width="1" fill="none" fill-rule="evenodd">
        <g id="Group-58" transform="translate(3.000000, 5.000000)">
            <g id="Group-3" transform="translate(0.000000, 8.046671)">
                <mask id="mask-2" fill="white">
                    <use xlink:href="#path-1"></use>
                </mask>
                <g id="Clip-2"></g>
                <path d="M0.390695385,11.29728 C1.80657231,5.44472615 9.45506462,6.53863385 13.6623262,5.75881846 C17.8676185,4.97900308 28.5753108,2.14331077 35.9599262,0.525587692 C43.3445415,-1.09213538 53.2674954,1.45112615 55.8521108,6.62035692 C58.4367262,11.7895877 57.4009108,17.4590031 60.9701415,20.5566031 C64.5393723,23.6532185 66.5460185,35.5847877 53.7460185,36.3232492 C40.9460185,37.0617108 34.7094646,35.1594338 29.1710031,37.4713108 C23.6325415,39.7831877 9.81641846,44.5300185 6.29838769,38.1694031 C2.97531077,32.1593108 7.89838769,29.1079877 7.89838769,24.7156185 C7.89838769,20.3232492 -2.07084308,21.4713108 0.390695385,11.29728" id="Fill-1" fill="#E1F3F0" mask="url(#mask-2)"></path>
            </g>
            <path d="M54.4579938,15.5949292 L58.6426092,15.5949292" id="Stroke-4" stroke="#509E2F" stroke-linecap="round"></path>
            <path d="M56.5503015,13.5026215 L56.5503015,17.6872369" id="Stroke-6" stroke="#509E2F" stroke-linecap="round"></path>
            <path d="M12.7204431,44.5285415 L16.9050585,44.5285415" id="Stroke-8" stroke="#509E2F" stroke-linecap="round"></path>
            <path d="M14.8127508,42.4362338 L14.8127508,46.6208492" id="Stroke-10" stroke="#509E2F" stroke-linecap="round"></path>
            <polygon id="Fill-12" fill="#49A58F" points="50.5782154 36.9064369 47.3782154 40.0680369 9.83778462 40.0680369 12.9984 36.9064369"></polygon>
            <polygon id="Fill-14" fill="#58BAA5" points="9.83778462 40.0680369 9.83778462 6.65216 12.9984 3.53289846 12.9984 36.9064369"></polygon>
            <mask id="mask-4" fill="white">
                <use xlink:href="#path-3"></use>
            </mask>
            <g id="Clip-17"></g>
            <polygon id="Fill-16" fill="#D6EDC6" mask="url(#mask-4)" points="12.9979077 36.9067323 50.5777231 36.9067323 50.5777231 3.53220923 12.9979077 3.53220923"></polygon>
            <polygon id="Fill-18" fill="#11533D" mask="url(#mask-4)" points="12.9979077 11.3067323 50.5777231 11.3067323 50.5777231 3.53220923 12.9979077 3.53220923"></polygon>
            <path d="M20.8348554,0.984812308 L20.8348554,6.85213538" id="Stroke-19" stroke="#20987A" stroke-width="2" stroke-linecap="round" mask="url(#mask-4)"></path>
            <path d="M42.7425477,0.984812308 L42.7425477,6.85213538" id="Stroke-20" stroke="#20987A" stroke-width="2" stroke-linecap="round" mask="url(#mask-4)"></path>
            <polygon id="Fill-21" fill="#1D7E66" mask="url(#mask-4)" points="16.2806154 17.6250092 47.7056 17.6250092 47.7056 14.1788554 16.2806154 14.1788554"></polygon>
            <polygon id="Fill-22" fill="#FFFFFF" mask="url(#mask-4)" points="16.2806154 33.9489477 47.7056 33.9489477 47.7056 17.6240246 16.2806154 17.6240246"></polygon>
            <path d="M20.7704615,17.6247138 L20.7704615,33.9496369" id="Stroke-23" stroke="#D6EDC6" mask="url(#mask-4)"></path>
            <path d="M25.2599138,17.6247138 L25.2599138,33.9496369" id="Stroke-24" stroke="#D6EDC6" mask="url(#mask-4)"></path>
            <path d="M29.7493662,17.6247138 L29.7493662,33.9496369" id="Stroke-25" stroke="#D6EDC6" mask="url(#mask-4)"></path>
            <path d="M34.2378338,17.6247138 L34.2378338,33.9496369" id="Stroke-26" stroke="#D6EDC6" mask="url(#mask-4)"></path>
            <path d="M38.7271877,17.6247138 L38.7271877,33.9496369" id="Stroke-27" stroke="#D6EDC6" mask="url(#mask-4)"></path>
            <path d="M43.21664,17.6247138 L43.21664,33.9496369" id="Stroke-28" stroke="#D6EDC6" mask="url(#mask-4)"></path>
            <path d="M16.2810092,21.7165785 L47.7059938,21.7165785" id="Stroke-29" stroke="#D6EDC6" mask="url(#mask-4)"></path>
            <path d="M16.2810092,25.8083446 L47.7059938,25.8083446" id="Stroke-30" stroke="#D6EDC6" mask="url(#mask-4)"></path>
            <path d="M16.2810092,29.9002092 L47.7059938,29.9002092" id="Stroke-31" stroke="#D6EDC6" mask="url(#mask-4)"></path>
            <path d="M11.9108923,7.41947077 C11.9108923,7.14771692 11.6903385,6.92716308 11.4185846,6.92716308 C11.1468308,6.92716308 10.9262769,7.14771692 10.9262769,7.41947077 L10.9262769,38.9793477 L11.9108923,37.9947323 L11.9108923,7.41947077 Z" id="Fill-32" fill="#11533D" mask="url(#mask-4)"></path>
            <polygon id="Fill-33" fill="#11533D" mask="url(#mask-4)" points="11.9108923 37.9954215 11.9108923 37.9944369 10.9262769 38.9790523 10.9262769 38.9800369 48.4795077 38.9800369 49.4759385 37.9954215"></polygon>
            <path d="M42.3983262,44.5285415 L27.3169723,44.5285415 L27.3169723,37.0306954 C27.3169723,33.3945108 30.2649108,30.4465723 33.9010954,30.4465723 L35.8142031,30.4465723 C39.4503877,30.4465723 42.3983262,33.3945108 42.3983262,37.0306954 L42.3983262,44.5285415 Z" id="Fill-34" fill="#1D7E66" mask="url(#mask-4)"></path>
            <path d="M35.0915938,33.68192 L34.6042092,33.68192 C33.7544862,33.68192 33.0652554,32.9936738 33.0652554,32.1439508 L33.0652554,28.04992 L36.6295631,28.04992 L36.6295631,32.1439508 C36.6295631,32.9936738 35.9403323,33.68192 35.0915938,33.68192" id="Fill-35" fill="#A6D8C7" mask="url(#mask-4)"></path>
            <path d="M34.6041108,33.68192 C33.7543877,33.68192 33.0661415,32.9936738 33.0661415,32.1439508 L33.0661415,28.04992 L36.6304492,28.04992 L36.6304492,30.5725046 L34.6041108,33.68192 Z" id="Fill-36" fill="#49A58F" mask="url(#mask-4)"></path>
            <path d="M34.9906708,21.4098708 C32.3794708,21.4098708 30.2615631,23.5267938 30.2615631,26.1379938 C30.2615631,26.3939938 30.2979938,26.6391631 30.3373785,26.8843323 L37.92384,22.4565169 C37.1154708,21.8115938 36.1052554,21.4098708 34.9906708,21.4098708" id="Fill-37" fill="#0F4827" mask="url(#mask-4)"></path>
            <path d="M31.3532062,26.7964062 C31.3532062,27.3989908 30.8648369,27.8863754 30.2622523,27.8863754 C29.6596677,27.8863754 29.1712985,27.3989908 29.1712985,26.7964062 C29.1712985,26.1938215 29.6596677,25.7064369 30.2622523,25.7064369 C30.8648369,25.7064369 31.3532062,26.1938215 31.3532062,26.7964062" id="Fill-38" fill="#A6D8C7" mask="url(#mask-4)"></path>
            <path d="M40.0820185,27.0646154 L39.5946338,27.0646154 C39.2706954,27.0646154 39.0078031,26.8017231 39.0078031,26.4777846 L39.0078031,26.2926769 C39.0078031,25.9687385 39.2706954,25.7058462 39.5946338,25.7058462 L40.0820185,25.7058462 C40.4059569,25.7058462 40.6688492,25.9687385 40.6688492,26.2926769 L40.6688492,26.4777846 C40.6688492,26.8017231 40.4059569,27.0646154 40.0820185,27.0646154" id="Fill-39" fill="#A6D8C7" mask="url(#mask-4)"></path>
            <path d="M34.6041108,33.68192 C33.7543877,33.68192 33.0661415,32.9936738 33.0661415,32.1439508 L33.0661415,30.5045662 C29.8247877,30.9161354 27.3169723,33.6779815 27.3169723,37.0305969 L27.3169723,44.5284431 L34.6041108,33.68192 Z" id="Fill-40" fill="#1A634E" mask="url(#mask-4)"></path>
            <path d="M36.7877908,27.9247754 L39.3635446,27.9247754 C39.5890215,27.3724062 39.7189908,26.7708062 39.7189908,26.1376985 C39.7189908,24.6410831 39.0090831,23.3236677 37.9240369,22.4572062 L30.3375754,26.8840369 C30.69696,29.1378215 32.6346831,30.8658215 34.9908677,30.8658215 C36.2492062,30.8658215 37.3854523,30.3656369 38.2332062,29.56416 C37.4189292,29.4578215 36.7877908,28.7676062 36.7877908,27.9247754" id="Fill-41" fill="#A6D8C7" mask="url(#mask-4)"></path>
            <path d="M39.3637415,27.9247754 L36.7879877,27.9247754 C36.7879877,28.7676062 37.4181415,29.4578215 38.2334031,29.56416 C38.7178338,29.1053292 39.1067569,28.5519754 39.3637415,27.9247754" id="Fill-42" fill="#1D7E66" mask="url(#mask-4)"></path>
            <path d="M37.1964062,25.8161231 C37.1964062,26.0622769 36.9965292,26.2621538 36.7503754,26.2621538 C36.5032369,26.2621538 36.3043446,26.0622769 36.3043446,25.8161231 C36.3043446,25.5699692 36.5032369,25.3700923 36.7503754,25.3700923 C36.9965292,25.3700923 37.1964062,25.5699692 37.1964062,25.8161231" id="Fill-43" fill="#0F4827" mask="url(#mask-4)"></path>
            <polygon id="Fill-44" fill="#0F4827" mask="url(#mask-4)" points="39.1778462 44.52864 39.5490462 44.52864 39.5490462 36.8988554 39.1778462 36.8988554"></polygon>
            <polygon id="Fill-45" fill="#0F4827" mask="url(#mask-4)" points="30.5890462 44.52864 30.9602462 44.52864 30.9602462 36.8988554 30.5890462 36.8988554"></polygon>
            <path d="M52.6954338,21.4098708 L51.82208,21.4098708 C51.0196185,21.4098708 50.2742646,21.6235323 49.6165415,21.9819323 C49.3605415,22.1207631 49.1143877,22.2763323 48.8889108,22.4565169 L50.7301415,23.5317169 L50.8886646,33.6821169 L57.8262646,33.6821169 L57.8262646,26.5416862 C57.8262646,23.7069785 55.5291569,21.4098708 52.6954338,21.4098708" id="Fill-46" fill="#0F4827" mask="url(#mask-4)"></path>
            <path d="M44.4137354,44.5285415 L59.4960738,44.5285415 L59.4960738,37.0306954 C59.4960738,33.3945108 56.5481354,30.4465723 52.9109662,30.4465723 L50.9988431,30.4465723 C47.3616738,30.4465723 44.4137354,33.3945108 44.4137354,37.0306954 L44.4137354,44.5285415 Z" id="Fill-47" fill="#1D7E66" mask="url(#mask-4)"></path>
            <path d="M51.7214523,33.68192 L52.2078523,33.68192 C53.0575754,33.68192 53.7468062,32.9936738 53.7468062,32.1439508 L53.7468062,28.04992 L50.1834831,28.04992 L50.1834831,32.1439508 C50.1834831,32.9936738 50.8717292,33.68192 51.7214523,33.68192" id="Fill-48" fill="#58BAA5" mask="url(#mask-4)"></path>
            <path d="M52.2079508,33.68192 C53.0576738,33.68192 53.74592,32.9936738 53.74592,32.1439508 L53.74592,28.04992 L50.1825969,28.04992 L50.1825969,30.5725046 L52.2079508,33.68192 Z" id="Fill-49" fill="#49A58F" mask="url(#mask-4)"></path>
            <path d="M55.4599385,26.7964062 C55.4599385,27.3989908 55.9483077,27.8863754 56.5499077,27.8863754 C57.1534769,27.8863754 57.6408615,27.3989908 57.6408615,26.7964062 C57.6408615,26.1938215 57.1534769,25.7064369 56.5499077,25.7064369 C55.9483077,25.7064369 55.4599385,26.1938215 55.4599385,26.7964062" id="Fill-50" fill="#A6D8C7" mask="url(#mask-4)"></path>
            <path d="M46.7301415,27.0646154 L47.2185108,27.0646154 C47.5424492,27.0646154 47.8053415,26.8017231 47.8053415,26.4777846 L47.8053415,26.2926769 C47.8053415,25.9687385 47.5424492,25.7058462 47.2185108,25.7058462 L46.7301415,25.7058462 C46.4062031,25.7058462 46.1433108,25.9687385 46.1433108,26.2926769 L46.1433108,26.4777846 C46.1433108,26.8017231 46.4062031,27.0646154 46.7301415,27.0646154" id="Fill-51" fill="#A6D8C7" mask="url(#mask-4)"></path>
            <path d="M52.2079508,33.68192 C53.0576738,33.68192 53.74592,32.9936738 53.74592,32.1439508 L53.74592,30.5045662 C56.9872738,30.9161354 59.4960738,33.6779815 59.4960738,37.0305969 L59.4960738,44.5284431 L52.2079508,33.68192 Z" id="Fill-52" fill="#1A634E" mask="url(#mask-4)"></path>
            <path d="M50.0243692,27.9247754 L47.4496,27.9247754 C47.2231385,27.3724062 47.0941538,26.7708062 47.0941538,26.1376985 C47.0941538,24.6410831 47.8030769,23.3236677 48.8891077,22.4572062 L56.4755692,26.8840369 C56.1161846,29.1378215 54.1784615,30.8658215 51.8222769,30.8658215 C50.5639385,30.8658215 49.4276923,30.3656369 48.5789538,29.56416 C49.3932308,29.4578215 50.0243692,28.7676062 50.0243692,27.9247754" id="Fill-53" fill="#A6D8C7" mask="url(#mask-4)"></path>
            <path d="M47.4493046,27.9247754 L50.0240738,27.9247754 C50.0240738,28.7676062 49.39392,29.4578215 48.5786585,29.56416 C48.0952123,29.1053292 47.7062892,28.5519754 47.4493046,27.9247754" id="Fill-54" fill="#1D7E66" mask="url(#mask-4)"></path>
            <path d="M49.61664,25.8161231 C49.61664,26.0622769 49.8165169,26.2621538 50.0626708,26.2621538 C50.3088246,26.2621538 50.5087015,26.0622769 50.5087015,25.8161231 C50.5087015,25.5699692 50.3088246,25.3700923 50.0626708,25.3700923 C49.8165169,25.3700923 49.61664,25.5699692 49.61664,25.8161231" id="Fill-55" fill="#0F4827" mask="url(#mask-4)"></path>
            <polygon id="Fill-56" fill="#0F4827" mask="url(#mask-4)" points="47.2635077 44.52864 47.6347077 44.52864 47.6347077 36.8988554 47.2635077 36.8988554"></polygon>
            <polygon id="Fill-57" fill="#0F4827" mask="url(#mask-4)" points="55.8523077 44.52864 56.2235077 44.52864 56.2235077 36.8988554 55.8523077 36.8988554"></polygon>
        </g>
        <rect id="Rectangle" fill-rule="nonzero" x="0" y="0" width="70" height="60"></rect>
    </g>
</svg>