<?xml version="1.0" encoding="UTF-8"?>
<svg width="70px" height="60px" viewBox="0 0 70 60" version="1.1" xmlns="http://www.w3.org/2000/svg" xmlns:xlink="http://www.w3.org/1999/xlink">
    <!-- Generator: Sketch 52.2 (67145) - http://www.bohemiancoding.com/sketch -->
    <title>team-timesheets-lg</title>
    <desc>Created with Sketch.</desc>
    <defs>
        <polygon id="path-1" points="0.13730257 0.538165478 63.755 0.538165478 63.755 51.1120879 0.13730257 51.1120879"></polygon>
        <polygon id="path-3" points="0 51.7564009 63.755 51.7564009 63.755 1.00209758 0 1.00209758"></polygon>
    </defs>
    <g id="team-timesheets-lg" stroke="none" stroke-width="1" fill="none" fill-rule="evenodd">
        <g id="Group-61" transform="translate(3.000000, 4.000000)">
            <g id="Group-3" transform="translate(0.000000, 0.644313)">
                <mask id="mask-2" fill="white">
                    <use xlink:href="#path-1"></use>
                </mask>
                <g id="Clip-2"></g>
                <path d="M33.3575,0.559126154 C40.9495,0.147222857 45.7395,5.84772396 49.6215,13.9885767 C52.8905,20.8436097 56.0145,20.1951877 60.9085,24.2791437 C64.9085,27.6184668 65.6585,38.7478734 56.7415,41.5289723 C49.2125,43.8791262 46.7605,48.7337723 42.0355,50.2601196 C39.5475,51.06288 32.7815,52.2444712 24.8125,48.6886734 C16.0675,44.7871174 10.7295,43.0102207 7.3255,41.9007877 C-2.3415,38.7478734 -1.9245,24.2791437 6.5755,20.1621152 C17.5185,14.8604888 17.3415,11.8138075 20.1885,7.6526822 C24.2045,1.78080527 30.0065,0.740523956 33.3575,0.559126154" id="Fill-1" fill="#E6F4EF" mask="url(#mask-2)"></path>
            </g>
            <path d="M58.0519,15.4206171 L62.3019,15.4206171" id="Stroke-4" stroke="#509E2F" stroke-width="1.09375" stroke-linecap="round"></path>
            <path d="M60.1769,13.2909468 L60.1769,17.5502875" id="Stroke-6" stroke="#509E2F" stroke-width="1.09375" stroke-linecap="round"></path>
            <path d="M4.3956,45.9847437 L8.6456,45.9847437" id="Stroke-8" stroke="#509E2F" stroke-width="1.09375" stroke-linecap="round"></path>
            <path d="M6.5206,43.8550734 L6.5206,48.1144141" id="Stroke-10" stroke="#509E2F" stroke-width="1.09375" stroke-linecap="round"></path>
            <mask id="mask-4" fill="white">
                <use xlink:href="#path-3"></use>
            </mask>
            <g id="Clip-13"></g>
            <polygon id="Fill-12" fill="#1D7E66" mask="url(#mask-4)" points="9.298 12.2247086 54.803 12.2247086 54.803 7.03332396 9.298 7.03332396"></polygon>
            <polygon id="Fill-14" fill="#EEF8E8" mask="url(#mask-4)" points="9.298 38.5654734 54.803 38.5654734 54.803 12.2257108 9.298 12.2257108"></polygon>
            <path d="M9.7472,19.0648088 L54.4132,19.0648088" id="Stroke-15" stroke="#D6EDC6" stroke-width="1.09375" stroke-linecap="square" mask="url(#mask-4)"></path>
            <path d="M27.9611,12.7409407 L27.9611,38.0464352" id="Stroke-16" stroke="#D6EDC6" stroke-width="1.09375" stroke-linecap="square" mask="url(#mask-4)"></path>
            <path d="M35.0275,12.7409407 L35.0275,38.0464352" id="Stroke-17" stroke="#D6EDC6" stroke-width="1.09375" stroke-linecap="square" mask="url(#mask-4)"></path>
            <path d="M41.4894,12.7409407 L41.4894,38.0464352" id="Stroke-18" stroke="#D6EDC6" stroke-width="1.09375" stroke-linecap="square" mask="url(#mask-4)"></path>
            <path d="M47.9513,12.7409407 L47.9513,38.0464352" id="Stroke-19" stroke="#D6EDC6" stroke-width="1.09375" stroke-linecap="square" mask="url(#mask-4)"></path>
            <path d="M9.7472,25.3921846 L54.4132,25.3921846" id="Stroke-20" stroke="#D6EDC6" stroke-width="1.09375" stroke-linecap="square" mask="url(#mask-4)"></path>
            <path d="M9.7472,31.7190593 L54.4132,31.7190593" id="Stroke-21" stroke="#D6EDC6" stroke-width="1.09375" stroke-linecap="square" mask="url(#mask-4)"></path>
            <path d="M46.215,15.9672158 C46.215,16.6787763 45.639,17.2570444 44.928,17.2570444 C44.217,17.2570444 43.641,16.6787763 43.641,15.9672158 C43.641,15.2546532 44.217,14.6773873 44.928,14.6773873 C45.639,14.6773873 46.215,15.2546532 46.215,15.9672158" id="Fill-22" fill="#006A54" mask="url(#mask-4)"></path>
            <path d="M24.7599,22.0998646 L13.0099,22.0998646" id="Stroke-23" stroke="#9ED47B" stroke-width="2.1875" stroke-linecap="round" mask="url(#mask-4)"></path>
            <path d="M32.5519,22.0513582 C32.5519,22.7639209 31.9759,23.3411868 31.2649,23.3411868 C30.5539,23.3411868 29.9779,22.7639209 29.9779,22.0513582 C29.9779,21.3387956 30.5539,20.7615297 31.2649,20.7615297 C31.9759,20.7615297 32.5519,21.3387956 32.5519,22.0513582" id="Fill-24" fill="#006A54" mask="url(#mask-4)"></path>
            <path d="M52.9425,22.0513582 C52.9425,22.7639209 52.3665,23.3411868 51.6565,23.3411868 C50.9455,23.3411868 50.3695,22.7639209 50.3695,22.0513582 C50.3695,21.3387956 50.9455,20.7615297 51.6565,20.7615297 C52.3665,20.7615297 52.9425,21.3387956 52.9425,22.0513582" id="Fill-25" fill="#006A54" mask="url(#mask-4)"></path>
            <path d="M39.631,28.6371007 C39.631,29.3496633 39.055,29.9269292 38.344,29.9269292 C37.633,29.9269292 37.057,29.3496633 37.057,28.6371007 C37.057,27.9255402 37.633,27.3472721 38.344,27.3472721 C39.055,27.3472721 39.631,27.9255402 39.631,28.6371007" id="Fill-26" fill="#006A54" mask="url(#mask-4)"></path>
            <path d="M52.9425,35.2233442 C52.9425,35.9359068 52.3665,36.5131727 51.6565,36.5131727 C50.9455,36.5131727 50.3695,35.9359068 50.3695,35.2233442 C50.3695,34.5107815 50.9455,33.9335156 51.6565,33.9335156 C52.3665,33.9335156 52.9425,34.5107815 52.9425,35.2233442" id="Fill-27" fill="#006A54" mask="url(#mask-4)"></path>
            <path d="M24.7599,28.6371007 L13.0099,28.6371007" id="Stroke-28" stroke="#9ED47B" stroke-width="2.1875" stroke-linecap="round" mask="url(#mask-4)"></path>
            <path d="M24.7599,34.8626532 L13.0099,34.8626532" id="Stroke-29" stroke="#9ED47B" stroke-width="2.1875" stroke-linecap="round" mask="url(#mask-4)"></path>
            <path d="M19.5294,10.7883587 C19.5294,16.1932114 15.1574,20.5748202 9.7644,20.5748202 C4.3724,20.5748202 0.0004,16.1932114 0.0004,10.7883587 C0.0004,5.38350593 4.3724,1.00189714 9.7644,1.00189714 C15.1574,1.00189714 19.5294,5.38350593 19.5294,10.7883587" id="Fill-30" fill="#11533D" mask="url(#mask-4)"></path>
            <path d="M9.7648,18.9434426 C5.2708,18.9434426 1.6278,15.292436 1.6278,10.7885591 C1.6278,6.2846822 5.2708,2.6336756 9.7648,2.6336756" id="Fill-31" fill="#D6EDC6" mask="url(#mask-4)"></path>
            <path d="M9.7648,2.63377582 C14.2588,2.63377582 17.9018,6.28478242 17.9018,10.7886593 C17.9018,15.2925363 14.2588,18.9435429 9.7648,18.9435429" id="Fill-32" fill="#EEF8E8" mask="url(#mask-4)"></path>
            <path d="M9.7648,4.17916484 L9.7648,10.6393319" id="Stroke-33" stroke="#1D7E66" stroke-width="2.1875" stroke-linecap="round" mask="url(#mask-4)"></path>
            <path d="M13.2179,14.5187393 L9.7359,11.0290866" id="Stroke-34" stroke="#1D7E66" stroke-width="2.1875" stroke-linecap="round" mask="url(#mask-4)"></path>
            <path d="M10.921,10.7883587 C10.921,11.4287631 10.403,11.9479015 9.765,11.9479015 C9.126,11.9479015 8.608,11.4287631 8.608,10.7883587 C8.608,10.1479543 9.126,9.62981802 9.765,9.62981802 C10.403,9.62981802 10.921,10.1479543 10.921,10.7883587" id="Fill-35" fill="#11533D" mask="url(#mask-4)"></path>
            <polyline id="Stroke-36" stroke="#ADDB8F" stroke-width="1.09375" mask="url(#mask-4)" points="9.0802 20.5916571 9.0802 38.4648527 54.8032 38.4648527"></polyline>
            <path d="M42.2238,45.9847437 L26.9068,45.9847437 L26.9068,38.3530075 C26.9068,34.651891 29.9008,31.6513108 33.5938,31.6513108 L35.5368,31.6513108 C39.2298,31.6513108 42.2238,34.651891 42.2238,38.3530075 L42.2238,45.9847437 Z" id="Fill-37" fill="#1D7E66" mask="url(#mask-4)"></path>
            <path d="M34.8029,34.9444325 L34.3079,34.9444325 C33.4449,34.9444325 32.7449,34.2438963 32.7449,33.3789996 L32.7449,29.2118611 L36.3649,29.2118611 L36.3649,33.3789996 C36.3649,34.2438963 35.6649,34.9444325 34.8029,34.9444325" id="Fill-38" fill="#A6D8C7" mask="url(#mask-4)"></path>
            <path d="M34.3077,34.9444325 C33.4447,34.9444325 32.7457,34.2438963 32.7457,33.3789996 L32.7457,29.2118611 L36.3657,29.2118611 L36.3657,31.7794919 L34.3077,34.9444325 Z" id="Fill-39" fill="#49A58F" mask="url(#mask-4)"></path>
            <path d="M34.7003,22.4531393 C32.0483,22.4531393 29.8973,24.6078646 29.8973,27.2656932 C29.8973,27.5262646 29.9343,27.7758119 29.9743,28.0253591 L37.6793,23.5184756 C36.8583,22.862036 35.8323,22.4531393 34.7003,22.4531393" id="Fill-40" fill="#0F4827" mask="url(#mask-4)"></path>
            <path d="M31.006,27.9358629 C31.006,28.5492079 30.51,29.0452958 29.898,29.0452958 C29.286,29.0452958 28.79,28.5492079 28.79,27.9358629 C28.79,27.3225178 29.286,26.8264299 29.898,26.8264299 C30.51,26.8264299 31.006,27.3225178 31.006,27.9358629" id="Fill-41" fill="#A6D8C7" mask="url(#mask-4)"></path>
            <path d="M39.8712,28.2089618 L39.3762,28.2089618 C39.0472,28.2089618 38.7802,27.9413749 38.7802,27.6116519 L38.7802,27.4232387 C38.7802,27.0935156 39.0472,26.8259288 39.3762,26.8259288 L39.8712,26.8259288 C40.2002,26.8259288 40.4672,27.0935156 40.4672,27.4232387 L40.4672,27.6116519 C40.4672,27.9413749 40.2002,28.2089618 39.8712,28.2089618" id="Fill-42" fill="#A6D8C7" mask="url(#mask-4)"></path>
            <path d="M34.3077,34.9444325 C33.4447,34.9444325 32.7457,34.2438963 32.7457,33.3789996 L32.7457,31.7103402 C29.4537,32.1292589 26.9067,34.9404237 26.9067,38.3529073 L26.9067,45.9846435 L34.3077,34.9444325 Z" id="Fill-43" fill="#1A634E" mask="url(#mask-4)"></path>
            <path d="M36.5255,29.0843815 L39.1415,29.0843815 C39.3705,28.5221486 39.5025,27.9098057 39.5025,27.2653925 C39.5025,25.7420519 38.7815,24.4011112 37.6795,23.5191771 L29.9745,28.0250585 C30.3395,30.3190892 32.3075,32.0779464 34.7005,32.0779464 C35.9785,32.0779464 37.1325,31.5688299 37.9935,30.7530409 C37.1665,30.6448035 36.5255,29.9422629 36.5255,29.0843815" id="Fill-44" fill="#A6D8C7" mask="url(#mask-4)"></path>
            <path d="M39.1417,29.0843815 L36.5257,29.0843815 C36.5257,29.9422629 37.1657,30.6448035 37.9937,30.7530409 C38.4857,30.2860167 38.8807,29.7227815 39.1417,29.0843815" id="Fill-45" fill="#1D7E66" mask="url(#mask-4)"></path>
            <path d="M36.9406,26.9380747 C36.9406,27.1886242 36.7376,27.3920703 36.4876,27.3920703 C36.2366,27.3920703 36.0346,27.1886242 36.0346,26.9380747 C36.0346,26.6875253 36.2366,26.4840791 36.4876,26.4840791 C36.7376,26.4840791 36.9406,26.6875253 36.9406,26.9380747" id="Fill-46" fill="#0F4827" mask="url(#mask-4)"></path>
            <polygon id="Fill-47" fill="#0F4827" mask="url(#mask-4)" points="38.953 45.9847437 39.33 45.9847437 39.33 38.218713 38.953 38.218713"></polygon>
            <polygon id="Fill-48" fill="#0F4827" mask="url(#mask-4)" points="30.23 45.9847437 30.607 45.9847437 30.607 38.218713 30.23 38.218713"></polygon>
            <path d="M52.6818,22.4531393 L51.7948,22.4531393 C50.9798,22.4531393 50.2228,22.6706163 49.5548,23.0354163 C49.2948,23.1767262 49.0448,23.3350734 48.8158,23.5184756 L50.6858,24.6128756 L50.8468,34.9445327 L57.8938,34.9445327 L57.8938,27.6765943 C57.8938,24.7912668 55.5598,22.4531393 52.6818,22.4531393" id="Fill-49" fill="#0F4827" mask="url(#mask-4)"></path>
            <path d="M44.2706,45.9847437 L59.5886,45.9847437 L59.5886,38.3530075 C59.5886,34.651891 56.5946,31.6513108 52.9006,31.6513108 L50.9586,31.6513108 C47.2646,31.6513108 44.2706,34.651891 44.2706,38.3530075 L44.2706,45.9847437 Z" id="Fill-50" fill="#1D7E66" mask="url(#mask-4)"></path>
            <path d="M51.6925,34.9444325 L52.1865,34.9444325 C53.0495,34.9444325 53.7495,34.2438963 53.7495,33.3789996 L53.7495,29.2118611 L50.1305,29.2118611 L50.1305,33.3789996 C50.1305,34.2438963 50.8295,34.9444325 51.6925,34.9444325" id="Fill-51" fill="#58BAA5" mask="url(#mask-4)"></path>
            <path d="M52.1866,34.9444325 C53.0496,34.9444325 53.7486,34.2438963 53.7486,33.3789996 L53.7486,29.2118611 L50.1296,29.2118611 L50.1296,31.7794919 L52.1866,34.9444325 Z" id="Fill-52" fill="#49A58F" mask="url(#mask-4)"></path>
            <path d="M55.4894,27.9358629 C55.4894,28.5492079 55.9854,29.0452958 56.5964,29.0452958 C57.2094,29.0452958 57.7044,28.5492079 57.7044,27.9358629 C57.7044,27.3225178 57.2094,26.8264299 56.5964,26.8264299 C55.9854,26.8264299 55.4894,27.3225178 55.4894,27.9358629" id="Fill-53" fill="#A6D8C7" mask="url(#mask-4)"></path>
            <path d="M46.6232,28.2089618 L47.1192,28.2089618 C47.4482,28.2089618 47.7152,27.9413749 47.7152,27.6116519 L47.7152,27.4232387 C47.7152,27.0935156 47.4482,26.8259288 47.1192,26.8259288 L46.6232,26.8259288 C46.2942,26.8259288 46.0272,27.0935156 46.0272,27.4232387 L46.0272,27.6116519 C46.0272,27.9413749 46.2942,28.2089618 46.6232,28.2089618" id="Fill-54" fill="#A6D8C7" mask="url(#mask-4)"></path>
            <path d="M52.1866,34.9444325 C53.0496,34.9444325 53.7486,34.2438963 53.7486,33.3789996 L53.7486,31.7103402 C57.0406,32.1292589 59.5886,34.9404237 59.5886,38.3529073 L59.5886,45.9846435 L52.1866,34.9444325 Z" id="Fill-55" fill="#1A634E" mask="url(#mask-4)"></path>
            <path d="M49.9689,29.0843815 L47.3539,29.0843815 C47.1239,28.5221486 46.9929,27.9098057 46.9929,27.2653925 C46.9929,25.7420519 47.7129,24.4011112 48.8159,23.5191771 L56.5209,28.0250585 C56.1559,30.3190892 54.1879,32.0779464 51.7949,32.0779464 C50.5169,32.0779464 49.3629,31.5688299 48.5009,30.7530409 C49.3279,30.6448035 49.9689,29.9422629 49.9689,29.0843815" id="Fill-56" fill="#A6D8C7" mask="url(#mask-4)"></path>
            <path d="M47.3536,29.0843815 L49.9686,29.0843815 C49.9686,29.9422629 49.3286,30.6448035 48.5006,30.7530409 C48.0096,30.2860167 47.6146,29.7227815 47.3536,29.0843815" id="Fill-57" fill="#1D7E66" mask="url(#mask-4)"></path>
            <path d="M49.5548,26.9380747 C49.5548,27.1886242 49.7578,27.3920703 50.0078,27.3920703 C50.2578,27.3920703 50.4608,27.1886242 50.4608,26.9380747 C50.4608,26.6875253 50.2578,26.4840791 50.0078,26.4840791 C49.7578,26.4840791 49.5548,26.6875253 49.5548,26.9380747" id="Fill-58" fill="#0F4827" mask="url(#mask-4)"></path>
            <polygon id="Fill-59" fill="#0F4827" mask="url(#mask-4)" points="47.165 45.9847437 47.542 45.9847437 47.542 38.218713 47.165 38.218713"></polygon>
            <polygon id="Fill-60" fill="#0F4827" mask="url(#mask-4)" points="55.888 45.9847437 56.265 45.9847437 56.265 38.218713 55.888 38.218713"></polygon>
        </g>
        <rect id="Rectangle" fill-rule="nonzero" x="0" y="0" width="70" height="60"></rect>
    </g>
</svg>