<?xml version="1.0" encoding="UTF-8"?>
<svg width="70px" height="60px" viewBox="0 0 70 60" version="1.1" xmlns="http://www.w3.org/2000/svg" xmlns:xlink="http://www.w3.org/1999/xlink">
    <!-- Generator: Sketch 52.2 (67145) - http://www.bohemiancoding.com/sketch -->
    <title>team-goals-lg</title>
    <desc>Created with Sketch.</desc>
    <defs>
        <polygon id="path-1" points="0.936467692 0.297353846 3.48662154 0.297353846 3.48662154 5.34596923 0.936467692 5.34596923"></polygon>
        <polygon id="path-3" points="0 48.9337108 63.1148308 48.9337108 63.1148308 0.984910769 0 0.984910769"></polygon>
    </defs>
    <g id="team-goals-lg" stroke="none" stroke-width="1" fill="none" fill-rule="evenodd">
        <g id="Group-67" transform="translate(3.000000, 4.000000)">
            <path d="M0.390892308,20.0618338 C1.80676923,14.5627569 9.45526154,15.5897108 13.6625231,14.8571569 C17.8678154,14.1246031 28.5755077,11.4602338 35.9601231,9.93900308 C43.3447385,8.41875692 51.3447385,10.9630031 53.9293538,15.8210954 C56.5139692,20.6782031 55.7755077,26.4224492 59.3447385,29.3339569 C62.9139692,32.24448 65.6216615,44.3887262 52.8216615,45.0818954 C40.0216615,45.7760492 34.8524308,44.2065723 29.3139692,46.3796185 C23.7755077,48.55168 9.81563077,51.29088 6.29858462,45.31328 C2.97550769,39.6665108 7.89858462,36.7993108 7.89858462,32.6708185 C7.89858462,28.5433108 -2.07064615,29.6224492 0.390892308,20.0618338" id="Fill-1" fill="#E1F3F0"></path>
            <path d="M45.1870523,22.9161354 C45.1870523,33.15712 36.8847754,41.4584123 26.6447754,41.4584123 C16.4047754,41.4584123 8.10249846,33.15712 8.10249846,22.9161354 C8.10249846,12.6761354 16.4047754,4.37385846 26.6447754,4.37385846 C36.8847754,4.37385846 45.1870523,12.6761354 45.1870523,22.9161354" id="Fill-3" fill="#D6EDC6"></path>
            <path d="M39.7562092,22.9161354 C39.7562092,30.1569969 33.8859323,36.0272738 26.6450708,36.0272738 C19.4032246,36.0272738 13.5329477,30.1569969 13.5329477,22.9161354 C13.5329477,15.6752738 19.4032246,9.80499692 26.6450708,9.80499692 C33.8859323,9.80499692 39.7562092,15.6752738 39.7562092,22.9161354" id="Fill-5" fill="#9ED47B"></path>
            <path d="M34.4380062,22.9161354 C34.4380062,27.2208738 30.9485292,30.7103508 26.6447754,30.7103508 C22.3400369,30.7103508 18.85056,27.2208738 18.85056,22.9161354 C18.85056,18.6113969 22.3400369,15.12192 26.6447754,15.12192 C30.9485292,15.12192 34.4380062,18.6113969 34.4380062,22.9161354" id="Fill-7" fill="#64B239"></path>
            <polygon id="Fill-9" fill="#1D7E66" points="3.71101538 6.06710154 5.29624615 7.65331692 8.76012308 6.68740923 7.17390769 5.10217846"></polygon>
            <polygon id="Fill-11" fill="#49A58F" points="5.28699077 7.64356923 6.87320615 9.2288 10.3360985 8.26387692 8.75086769 6.67864615"></polygon>
            <polygon id="Fill-13" fill="#1D7E66" points="6.87448615 9.23057231 8.45971692 10.8167877 11.9235938 9.85088 10.3373785 8.26564923"></polygon>
            <g id="Group-17" transform="translate(6.892308, 0.687557)">
                <mask id="mask-2" fill="white">
                    <use xlink:href="#path-1"></use>
                </mask>
                <g id="Clip-16"></g>
                <polygon id="Fill-15" fill="#1D7E66" mask="url(#mask-2)" points="1.90139077 0.296861538 3.48662154 1.88307692 2.52268308 5.34596923 0.936467692 3.75975385"></polygon>
            </g>
            <polygon id="Fill-18" fill="#49A58F" points="10.3696738 2.56088615 11.9558892 4.14710154 10.9909662 7.60900923 9.40573538 6.02377846"></polygon>
            <polygon id="Fill-20" fill="#1D7E66" points="11.9571692 4.14788923 13.5424 5.73410462 12.5774769 9.19601231 10.9922462 7.61078154"></polygon>
            <path d="M27.8754462,25.1493415 C27.4382769,25.5874954 26.7273846,25.5874954 26.2892308,25.1493415 L6.49550769,5.35561846 C6.05833846,4.91844923 6.05833846,4.20755692 6.49550769,3.76940308 C6.93366154,3.33124923 7.64455385,3.33124923 8.08172308,3.76940308 L27.8754462,23.5631262 C28.3136,24.0002954 28.3136,24.7111877 27.8754462,25.1493415" id="Fill-22" fill="#11533D"></path>
            <path d="M2.09368615,44.2349292 L6.27830154,44.2349292" id="Stroke-24" stroke="#509E2F" stroke-linecap="round"></path>
            <path d="M4.18599385,42.1426215 L4.18599385,46.3272369" id="Stroke-26" stroke="#509E2F" stroke-linecap="round"></path>
            <path d="M50.1591631,7.29265231 L54.3437785,7.29265231" id="Stroke-28" stroke="#509E2F" stroke-linecap="round"></path>
            <path d="M52.2514708,5.20034462 L52.2514708,9.38496" id="Stroke-30" stroke="#509E2F" stroke-linecap="round"></path>
            <path d="M46.0177723,48.8531692 L30.9354338,48.8531692 L30.9354338,41.3553231 C30.9354338,37.7191385 33.8843569,34.7712 37.5205415,34.7712 L39.4336492,34.7712 C43.0698338,34.7712 46.0177723,37.7191385 46.0177723,41.3553231 L46.0177723,48.8531692 Z" id="Fill-32" fill="#1D7E66"></path>
            <path d="M38.7100554,38.0065477 L38.2236554,38.0065477 C37.3739323,38.0065477 36.6847015,37.3183015 36.6847015,36.4685785 L36.6847015,32.3745477 L40.2480246,32.3745477 L40.2480246,36.4685785 C40.2480246,37.3183015 39.5597785,38.0065477 38.7100554,38.0065477" id="Fill-34" fill="#A6D8C7"></path>
            <path d="M38.2235569,38.0065477 C37.3738338,38.0065477 36.6855877,37.3183015 36.6855877,36.4685785 L36.6855877,32.3745477 L40.2489108,32.3745477 L40.2489108,34.8971323 L38.2235569,38.0065477 Z" id="Fill-36" fill="#49A58F"></path>
            <path d="M38.6091323,25.7344 C35.9989169,25.7344 33.8810092,27.8513231 33.8810092,30.4625231 C33.8810092,30.7185231 33.91744,30.9636923 33.95584,31.2088615 L41.5423015,26.7810462 C40.7349169,26.1361231 39.7237169,25.7344 38.6091323,25.7344" id="Fill-38" fill="#0F4827"></path>
            <path d="M34.9716677,31.1209354 C34.9716677,31.72352 34.4832985,32.2109046 33.8816985,32.2109046 C33.2791138,32.2109046 32.7907446,31.72352 32.7907446,31.1209354 C32.7907446,30.5183508 33.2791138,30.0309662 33.8816985,30.0309662 C34.4832985,30.0309662 34.9716677,30.5183508 34.9716677,31.1209354" id="Fill-40" fill="#A6D8C7"></path>
            <path d="M43.7014646,31.3892431 L43.2130954,31.3892431 C42.8891569,31.3892431 42.6262646,31.1263508 42.6262646,30.8024123 L42.6262646,30.6173046 C42.6262646,30.2933662 42.8891569,30.0304738 43.2130954,30.0304738 L43.7014646,30.0304738 C44.0254031,30.0304738 44.2882954,30.2933662 44.2882954,30.6173046 L44.2882954,30.8024123 C44.2882954,31.1263508 44.0254031,31.3892431 43.7014646,31.3892431" id="Fill-42" fill="#A6D8C7"></path>
            <path d="M38.2235569,38.0065477 C37.3738338,38.0065477 36.6855877,37.3183015 36.6855877,36.4685785 L36.6855877,34.8291938 C33.4442338,35.2407631 30.9354338,38.0026092 30.9354338,41.3552246 L30.9354338,48.8530708 L38.2235569,38.0065477 Z" id="Fill-44" fill="#1A634E"></path>
            <path d="M40.4072369,32.2493046 L42.9820062,32.2493046 C43.2084677,31.6969354 43.3374523,31.0953354 43.3374523,30.4622277 C43.3374523,28.9656123 42.6285292,27.6481969 41.5424985,26.7817354 L33.9560369,31.2085662 C34.3154215,33.4623508 36.2531446,35.1903508 38.6093292,35.1903508 C39.8676677,35.1903508 41.0048985,34.6901662 41.8526523,33.8886892 C41.0383754,33.7823508 40.4072369,33.0921354 40.4072369,32.2493046" id="Fill-46" fill="#A6D8C7"></path>
            <path d="M42.9822031,32.2493046 L40.4074338,32.2493046 C40.4074338,33.0921354 41.0375877,33.7823508 41.8528492,33.8886892 C42.3362954,33.4298585 42.7262031,32.8765046 42.9822031,32.2493046" id="Fill-48" fill="#1D7E66"></path>
            <path d="M40.8148677,30.1406523 C40.8148677,30.3868062 40.6159754,30.5866831 40.3688369,30.5866831 C40.1226831,30.5866831 39.9228062,30.3868062 39.9228062,30.1406523 C39.9228062,29.8944985 40.1226831,29.6946215 40.3688369,29.6946215 C40.6159754,29.6946215 40.8148677,29.8944985 40.8148677,30.1406523" id="Fill-50" fill="#0F4827"></path>
            <mask id="mask-4" fill="white">
                <use xlink:href="#path-3"></use>
            </mask>
            <g id="Clip-53"></g>
            <polygon id="Fill-52" fill="#0F4827" mask="url(#mask-4)" points="42.7963077 48.8529723 43.1675077 48.8529723 43.1675077 41.2231877 42.7963077 41.2231877"></polygon>
            <polygon id="Fill-54" fill="#0F4827" mask="url(#mask-4)" points="34.2084923 48.8529723 34.5796923 48.8529723 34.5796923 41.2231877 34.2084923 41.2231877"></polygon>
            <path d="M56.3138954,25.7344 L55.4415262,25.7344 C54.6390646,25.7344 53.8937108,25.9480615 53.2359877,26.3064615 C52.9790031,26.4452923 52.7338338,26.6008615 52.5073723,26.7810462 L54.3495877,27.8562462 L54.5071262,38.0066462 L61.4457108,38.0066462 L61.4457108,30.8662154 C61.4457108,28.0315077 59.1486031,25.7344 56.3138954,25.7344" id="Fill-55" fill="#0F4827" mask="url(#mask-4)"></path>
            <path d="M48.0331815,48.8531692 L63.1145354,48.8531692 L63.1145354,41.3553231 C63.1145354,37.7191385 60.1665969,34.7712 56.5304123,34.7712 L54.6173046,34.7712 C50.98112,34.7712 48.0331815,37.7191385 48.0331815,41.3553231 L48.0331815,48.8531692 Z" id="Fill-56" fill="#1D7E66" mask="url(#mask-4)"></path>
            <path d="M55.3408985,38.0065477 L55.8272985,38.0065477 C56.6770215,38.0065477 57.3662523,37.3183015 57.3662523,36.4685785 L57.3662523,32.3745477 L53.8029292,32.3745477 L53.8029292,36.4685785 C53.8029292,37.3183015 54.4911754,38.0065477 55.3408985,38.0065477" id="Fill-57" fill="#58BAA5" mask="url(#mask-4)"></path>
            <path d="M55.8273969,38.0065477 C56.67712,38.0065477 57.3653662,37.3183015 57.3653662,36.4685785 L57.3653662,32.3745477 L53.8020431,32.3745477 L53.8020431,34.8971323 L55.8273969,38.0065477 Z" id="Fill-58" fill="#49A58F" mask="url(#mask-4)"></path>
            <path d="M59.0792862,31.1209354 C59.0792862,31.72352 59.5666708,32.2109046 60.1692554,32.2109046 C60.77184,32.2109046 61.2602092,31.72352 61.2602092,31.1209354 C61.2602092,30.5183508 60.77184,30.0309662 60.1692554,30.0309662 C59.5666708,30.0309662 59.0792862,30.5183508 59.0792862,31.1209354" id="Fill-59" fill="#A6D8C7" mask="url(#mask-4)"></path>
            <path d="M50.3494892,31.3892431 L50.8378585,31.3892431 C51.1608123,31.3892431 51.4246892,31.1263508 51.4246892,30.8024123 L51.4246892,30.6173046 C51.4246892,30.2933662 51.1608123,30.0304738 50.8378585,30.0304738 L50.3494892,30.0304738 C50.0255508,30.0304738 49.7626585,30.2933662 49.7626585,30.6173046 L49.7626585,30.8024123 C49.7626585,31.1263508 50.0255508,31.3892431 50.3494892,31.3892431" id="Fill-60" fill="#A6D8C7" mask="url(#mask-4)"></path>
            <path d="M55.8273969,38.0065477 C56.67712,38.0065477 57.3653662,37.3183015 57.3653662,36.4685785 L57.3653662,34.8291938 C60.60672,35.2407631 63.1145354,38.0026092 63.1145354,41.3552246 L63.1145354,48.8530708 L55.8273969,38.0065477 Z" id="Fill-61" fill="#1A634E" mask="url(#mask-4)"></path>
            <path d="M53.6437169,32.2493046 L51.0689477,32.2493046 C50.8424862,31.6969354 50.7125169,31.0953354 50.7125169,30.4622277 C50.7125169,28.9656123 51.4224246,27.6481969 52.5074708,26.7817354 L60.0949169,31.2085662 C59.7355323,33.4623508 57.7978092,35.1903508 55.4416246,35.1903508 C54.1832862,35.1903508 53.0460554,34.6901662 52.1983015,33.8886892 C53.0125785,33.7823508 53.6437169,33.0921354 53.6437169,32.2493046" id="Fill-62" fill="#A6D8C7" mask="url(#mask-4)"></path>
            <path d="M51.0687508,32.2493046 L53.64352,32.2493046 C53.64352,33.0921354 53.0133662,33.7823508 52.1981046,33.8886892 C51.7146585,33.4298585 51.3247508,32.8765046 51.0687508,32.2493046" id="Fill-63" fill="#1D7E66" mask="url(#mask-4)"></path>
            <path d="M53.2360862,30.1406523 C53.2360862,30.3868062 53.4349785,30.5866831 53.6821169,30.5866831 C53.9282708,30.5866831 54.1281477,30.3868062 54.1281477,30.1406523 C54.1281477,29.8944985 53.9282708,29.6946215 53.6821169,29.6946215 C53.4349785,29.6946215 53.2360862,29.8944985 53.2360862,30.1406523" id="Fill-64" fill="#0F4827" mask="url(#mask-4)"></path>
            <polygon id="Fill-65" fill="#0F4827" mask="url(#mask-4)" points="50.8819692 48.8529723 51.2541538 48.8529723 51.2541538 41.2231877 50.8819692 41.2231877"></polygon>
            <polygon id="Fill-66" fill="#0F4827" mask="url(#mask-4)" points="59.4717538 48.8529723 59.8429538 48.8529723 59.8429538 41.2231877 59.4717538 41.2231877"></polygon>
        </g>
        <rect id="Rectangle" fill-rule="nonzero" x="0" y="0" width="70" height="60"></rect>
    </g>
</svg>