<?xml version="1.0" encoding="UTF-8"?>
<svg width="70px" height="60px" viewBox="0 0 70 60" version="1.1" xmlns="http://www.w3.org/2000/svg" xmlns:xlink="http://www.w3.org/1999/xlink">
    <!-- Generator: Sketch 52.2 (67145) - http://www.bohemiancoding.com/sketch -->
    <title>timesheet-lg</title>
    <desc>Created with Sketch.</desc>
    <defs>
        <polygon id="path-1" points="0.000602569521 0.0947125364 63.618 0.0947125364 63.618 48.3638484 0.000602569521 48.3638484"></polygon>
        <polygon id="path-3" points="0 49.2768168 63.618 49.2768168 63.618 1.00768093 0 1.00768093"></polygon>
    </defs>
    <g id="timesheet-lg" stroke="none" stroke-width="1" fill="none" fill-rule="evenodd">
        <g id="Group-37" transform="translate(3.000000, 5.000000)">
            <g id="Group-3" transform="translate(0.000000, 0.912968)">
                <mask id="mask-2" fill="white">
                    <use xlink:href="#path-1"></use>
                </mask>
                <g id="Clip-2"></g>
                <path d="M33.2208,0.11436035 C40.8128,-0.277588338 45.6028,5.16233703 49.4848,12.9327953 C52.7538,19.4750134 55.8778,18.8563592 60.7718,22.7546869 C64.7718,25.9406554 65.5218,36.5625656 56.6048,39.2175394 C49.0758,41.4604128 46.6238,46.0932665 41.8988,47.5502274 C39.4108,48.3169959 32.6448,49.4444781 24.6758,46.0509481 C15.9308,42.3269318 10.5928,40.6311743 7.1888,39.5722076 C-2.4782,36.5625656 -2.0612,22.7546869 6.4388,18.8241166 C17.3818,13.764049 17.2048,10.8571802 20.0518,6.88529913 C24.0678,1.28013061 29.8698,0.28766414 33.2208,0.11436035" id="Fill-1" fill="#E1F3F0" mask="url(#mask-2)"></path>
            </g>
            <path d="M50.3975,5.35478484 L54.6475,5.35478484" id="Stroke-4" stroke="#509E2F" stroke-width="1.09375" stroke-linecap="round"></path>
            <path d="M52.5225,3.21367697 L52.5225,7.49589271" id="Stroke-6" stroke="#509E2F" stroke-width="1.09375" stroke-linecap="round"></path>
            <path d="M4.2589,46.0506458 L8.5089,46.0506458" id="Stroke-8" stroke="#509E2F" stroke-width="1.09375" stroke-linecap="round"></path>
            <path d="M6.3839,43.909538 L6.3839,48.1917537" id="Stroke-10" stroke="#509E2F" stroke-width="1.09375" stroke-linecap="round"></path>
            <mask id="mask-4" fill="white">
                <use xlink:href="#path-3"></use>
            </mask>
            <g id="Clip-13"></g>
            <polygon id="Fill-12" fill="#1D7E66" mask="url(#mask-4)" points="12.161 17.1481078 57.666 17.1481078 57.666 11.9288424 12.161 11.9288424"></polygon>
            <polygon id="Fill-14" fill="#EEF8E8" mask="url(#mask-4)" points="12.161 43.6293299 57.666 43.6293299 57.666 17.1481078 12.161 17.1481078"></polygon>
            <path d="M12.6104,24.0240364 L57.2764,24.0240364" id="Stroke-15" stroke="#D6EDC6" stroke-width="1.09375" stroke-linecap="square" mask="url(#mask-4)"></path>
            <path d="M30.8243,17.6662055 L30.8243,43.1076049" id="Stroke-16" stroke="#D6EDC6" stroke-width="1.09375" stroke-linecap="square" mask="url(#mask-4)"></path>
            <path d="M37.8907,17.6662055 L37.8907,43.1076049" id="Stroke-17" stroke="#D6EDC6" stroke-width="1.09375" stroke-linecap="square" mask="url(#mask-4)"></path>
            <path d="M44.3526,17.6662055 L44.3526,43.1076049" id="Stroke-18" stroke="#D6EDC6" stroke-width="1.09375" stroke-linecap="square" mask="url(#mask-4)"></path>
            <path d="M50.8145,17.6662055 L50.8145,43.1076049" id="Stroke-19" stroke="#D6EDC6" stroke-width="1.09375" stroke-linecap="square" mask="url(#mask-4)"></path>
            <path d="M12.6104,30.3853938 L57.2764,30.3853938" id="Stroke-20" stroke="#D6EDC6" stroke-width="1.09375" stroke-linecap="square" mask="url(#mask-4)"></path>
            <path d="M12.6104,36.7462475 L57.2764,36.7462475" id="Stroke-21" stroke="#D6EDC6" stroke-width="1.09375" stroke-linecap="square" mask="url(#mask-4)"></path>
            <path d="M49.0782,20.9098076 C49.0782,21.6251895 48.5022,22.2065633 47.7912,22.2065633 C47.0802,22.2065633 46.5042,21.6251895 46.5042,20.9098076 C46.5042,20.1934181 47.0802,19.6130519 47.7912,19.6130519 C48.5022,19.6130519 49.0782,20.1934181 49.0782,20.9098076" id="Fill-22" fill="#006A54" mask="url(#mask-4)"></path>
            <path d="M27.6231,27.0753922 L15.8731,27.0753922" id="Stroke-23" stroke="#9ED47B" stroke-width="2.1875" stroke-linecap="round" mask="url(#mask-4)"></path>
            <path d="M35.4151,27.0266253 C35.4151,27.7430148 34.8391,28.323381 34.1281,28.323381 C33.4171,28.323381 32.8411,27.7430148 32.8411,27.0266253 C32.8411,26.3102358 33.4171,25.7298696 34.1281,25.7298696 C34.8391,25.7298696 35.4151,26.3102358 35.4151,27.0266253" id="Fill-24" fill="#006A54" mask="url(#mask-4)"></path>
            <path d="M55.8057,27.0266253 C55.8057,27.7430148 55.2297,28.323381 54.5197,28.323381 C53.8087,28.323381 53.2327,27.7430148 53.2327,27.0266253 C53.2327,26.3102358 53.8087,25.7298696 54.5197,25.7298696 C55.2297,25.7298696 55.8057,26.3102358 55.8057,27.0266253" id="Fill-25" fill="#006A54" mask="url(#mask-4)"></path>
            <path d="M42.4942,33.6477369 C42.4942,34.3641264 41.9182,34.9444926 41.2072,34.9444926 C40.4962,34.9444926 39.9202,34.3641264 39.9202,33.6477369 C39.9202,32.932355 40.4962,32.3509812 41.2072,32.3509812 C41.9182,32.3509812 42.4942,32.932355 42.4942,33.6477369" id="Fill-26" fill="#006A54" mask="url(#mask-4)"></path>
            <path d="M55.8057,40.2693523 C55.8057,40.9857418 55.2297,41.566108 54.5197,41.566108 C53.8087,41.566108 53.2327,40.9857418 53.2327,40.2693523 C53.2327,39.5529628 53.8087,38.9725966 54.5197,38.9725966 C55.2297,38.9725966 55.8057,39.5529628 55.8057,40.2693523" id="Fill-27" fill="#006A54" mask="url(#mask-4)"></path>
            <path d="M27.6231,33.6477369 L15.8731,33.6477369" id="Stroke-28" stroke="#9ED47B" stroke-width="2.1875" stroke-linecap="round" mask="url(#mask-4)"></path>
            <path d="M27.6231,39.9067242 L15.8731,39.9067242" id="Stroke-29" stroke="#9ED47B" stroke-width="2.1875" stroke-linecap="round" mask="url(#mask-4)"></path>
            <path d="M22.3927,15.703137 C22.3927,21.1370169 18.0207,25.5421574 12.6277,25.5421574 C7.2357,25.5421574 2.8637,21.1370169 2.8637,15.703137 C2.8637,10.2692571 7.2357,5.86411662 12.6277,5.86411662 C18.0207,5.86411662 22.3927,10.2692571 22.3927,15.703137" id="Fill-30" fill="#11533D" mask="url(#mask-4)"></path>
            <path d="M12.628,23.9020184 C8.134,23.9020184 4.491,20.2314038 4.491,15.7033385 C4.491,11.1752732 8.134,7.50465866 12.628,7.50465866" id="Fill-31" fill="#D6EDC6" mask="url(#mask-4)"></path>
            <path d="M12.628,7.50475942 C17.122,7.50475942 20.765,11.175374 20.765,15.7034393 C20.765,20.2315046 17.122,23.9021192 12.628,23.9021192" id="Fill-32" fill="#EEF8E8" mask="url(#mask-4)"></path>
            <path d="M12.628,9.05844805 L12.628,15.5533099" id="Stroke-33" stroke="#1D7E66" stroke-width="2.1875" stroke-linecap="round" mask="url(#mask-4)"></path>
            <path d="M16.0811,19.453552 L12.5991,15.9451578" id="Stroke-34" stroke="#1D7E66" stroke-width="2.1875" stroke-linecap="round" mask="url(#mask-4)"></path>
            <path d="M13.7843,15.703137 C13.7843,16.3469808 13.2663,16.8689073 12.6283,16.8689073 C11.9893,16.8689073 11.4713,16.3469808 11.4713,15.703137 C11.4713,15.0592933 11.9893,14.5383743 12.6283,14.5383743 C13.2663,14.5383743 13.7843,15.0592933 13.7843,15.703137" id="Fill-35" fill="#11533D" mask="url(#mask-4)"></path>
            <polyline id="Stroke-36" stroke="#ADDB8F" stroke-width="1.09375" mask="url(#mask-4)" points="11.9434 25.5590848 11.9434 43.527262 57.6664 43.527262"></polyline>
        </g>
        <rect id="Rectangle" fill-rule="nonzero" x="0" y="0" width="70" height="60"></rect>
    </g>
</svg>