<?xml version="1.0" encoding="UTF-8"?>
<svg width="70px" height="60px" viewBox="0 0 70 60" version="1.1" xmlns="http://www.w3.org/2000/svg" xmlns:xlink="http://www.w3.org/1999/xlink">
    <!-- Generator: Sketch 52.2 (67145) - http://www.bohemiancoding.com/sketch -->
    <title>time-clock-lg</title>
    <desc>Created with Sketch.</desc>
    <g id="time-clock-lg" stroke="none" stroke-width="1" fill="none" fill-rule="evenodd">
        <g id="Group-30" transform="translate(6.000000, 4.000000)">
            <g id="Group-29">
                <path d="M52.7689179,10.2292667 C58.0583107,14.5649562 57.7413821,20.4403941 56.070775,25.6225804 C54.4012036,30.8047667 55.7631679,33.4422503 55.9226679,37.2723353 C56.0821679,41.1045052 51.0858821,54.8559072 37.844275,52.4008582 C24.6026679,49.9468516 25.5089179,51.0831588 20.3375964,51.6742471 C15.1652393,52.2642928 1.14995357,51.1394529 1.91016786,37.3963908 C2.66934643,23.6522863 17.4583107,13.8831719 29.8174893,9.45887124 C41.8120964,5.16592353 47.6255607,6.01450523 52.7689179,10.2292667" id="Fill-1" fill="#E1F3F0"></path>
                <path d="M5.54179643,3.62210948 L10.2967607,10.0229592" id="Stroke-3" stroke="#509E2F" stroke-width="2.14285714" stroke-linecap="round"></path>
                <path d="M0.276225,9.85001111 L7.504475,13.1578118" id="Stroke-5" stroke="#509E2F" stroke-width="2.14285714" stroke-linecap="round"></path>
                <path d="M12.9647607,0.299714052 L14.0740107,8.21320752" id="Stroke-7" stroke="#509E2F" stroke-width="2.14285714" stroke-linecap="round"></path>
                <path d="M1.14001071,44.5660722 L5.54179643,44.5660722" id="Stroke-9" stroke="#509E2F" stroke-width="1.07142857" stroke-linecap="round"></path>
                <path d="M3.34090357,42.3507944 L3.34090357,46.78135" id="Stroke-11" stroke="#509E2F" stroke-width="1.07142857" stroke-linecap="round"></path>
                <path d="M51.2244607,5.42247876 L55.6262464,5.42247876" id="Stroke-13" stroke="#509E2F" stroke-width="1.07142857" stroke-linecap="round"></path>
                <path d="M53.4253536,3.20720098 L53.4253536,7.63775654" id="Stroke-15" stroke="#509E2F" stroke-width="1.07142857" stroke-linecap="round"></path>
                <path d="M51.2244607,26.9934464 C51.2244607,38.6400739 41.8439964,48.0818484 30.2729964,48.0818484 C18.7019964,48.0818484 9.32153214,38.6400739 9.32153214,26.9934464 C9.32153214,15.346819 18.7019964,5.90504444 30.2729964,5.90504444 C41.8439964,5.90504444 51.2244607,15.346819 51.2244607,26.9934464" id="Fill-17" fill="#11533D"></path>
                <path d="M30.2735143,44.5660722 C20.6299786,44.5660722 12.8144786,36.698448 12.8144786,26.9939676 C12.8144786,17.2874023 20.6299786,9.42082059 30.2735143,9.42082059" id="Fill-19" fill="#D6EDC6"></path>
                <path d="M30.2735143,9.42040359 C39.9160143,9.42040359 47.7315143,17.2880278 47.7315143,26.9935507 C47.7315143,36.6990735 39.9160143,44.5656552 30.2735143,44.5656552" id="Fill-21" fill="#EEF8E8"></path>
                <path d="M30.2735143,12.7504092 L30.2735143,26.6717359" id="Stroke-23" stroke="#1D7E66" stroke-width="2.14285714" stroke-linecap="round"></path>
                <path d="M37.6822893,35.0320379 L30.2106464,27.5115608" id="Stroke-25" stroke="#1D7E66" stroke-width="2.14285714" stroke-linecap="round"></path>
                <path d="M32.7545679,26.9934464 C32.7545679,28.3726523 31.6442821,29.4912373 30.2729964,29.4912373 C28.9027464,29.4912373 27.791425,28.3726523 27.791425,26.9934464 C27.791425,25.6142405 28.9027464,24.4956556 30.2729964,24.4956556 C31.6442821,24.4956556 32.7545679,25.6142405 32.7545679,26.9934464" id="Fill-27" fill="#11533D"></path>
            </g>
        </g>
        <rect id="Rectangle" fill-rule="nonzero" x="0" y="0" width="70" height="60"></rect>
    </g>
</svg>