<?xml version="1.0" encoding="UTF-8"?>
<svg width="70px" height="60px" viewBox="0 0 70 60" version="1.1" xmlns="http://www.w3.org/2000/svg" xmlns:xlink="http://www.w3.org/1999/xlink">
    <!-- Generator: Sketch 52.2 (67145) - http://www.bohemiancoding.com/sketch -->
    <title>time-off-lg</title>
    <desc>Created with Sketch.</desc>
    <defs>
        <polygon id="path-1" points="0.542118224 1.02662282 63.9153898 1.02662282 63.9153898 48.0531688 0.542118224 48.0531688"></polygon>
    </defs>
    <g id="time-off-lg" stroke="none" stroke-width="1" fill="none" fill-rule="evenodd">
        <rect id="Rectangle" fill-rule="nonzero" x="0" y="0" width="70" height="60"></rect>
        <g id="Group-48" transform="translate(3.000000, 6.000000)">
            <g id="Group-3" transform="translate(0.000000, 0.066574)">
                <mask id="mask-2" fill="white">
                    <use xlink:href="#path-1"></use>
                </mask>
                <g id="Clip-2"></g>
                <path d="M0.628935593,10.8086957 C2.52507119,-2.4809441 16.149478,1.39324224 18.7409356,2.07209938 C25.9870373,3.97093168 29.4235119,1.35498137 34.5055458,2.0578882 C41.2494102,2.99145342 46.7740203,7.47453416 47.3586983,16.9359006 C47.9433763,26.3972671 49.0368,26.9569689 58.1215458,28.1211925 C67.2062915,29.2865093 64.3588339,39.8672795 58.1215458,39.6333416 C51.8842576,39.3983106 51.7486644,40.6379627 51.2062915,42.7510559 C50.6639186,44.8641491 49.0107661,47.4604224 46.7186983,47.8703602 C44.4266305,48.2802981 38.7132746,48.4377143 34.2473763,43.3719752 C29.781478,38.3051429 19.8755797,39.2769689 18.1009356,40.0454658 C11.1672407,43.0462112 4.79435932,40.8959503 3.84520678,35.8378634 C2.89605424,30.7775901 6.05266441,29.2865093 8.76452881,27.5101118 C11.4763932,25.7337143 11.4763932,21.3074783 7.40859661,19.5573168 C3.3408,17.8082484 -0.0490305085,15.5606957 0.628935593,10.8086957" id="Fill-1" fill="#E6F4EF" mask="url(#mask-2)"></path>
            </g>
            <path d="M27.5331254,13.6609888 L20.9009898,20.3446161" id="Stroke-4" stroke="#BCE2D5" stroke-width="1.18644068" stroke-linecap="round"></path>
            <path d="M44.1358102,30.3926857 L37.5036746,37.076313" id="Stroke-6" stroke="#BCE2D5" stroke-width="1.18644068" stroke-linecap="round"></path>
            <path d="M45.9854102,35.9038907 L34.5055458,47.4728845" id="Stroke-8" stroke="#BCE2D5" stroke-width="1.18644068" stroke-linecap="round"></path>
            <path d="M22.0643797,11.7975752 L13.5838373,20.3439602" id="Stroke-10" stroke="#BCE2D5" stroke-width="1.18644068" stroke-linecap="round"></path>
            <path d="M25.9870373,38.9821416 L20.8019525,44.2085764" id="Stroke-12" stroke="#BCE2D5" stroke-width="1.18644068" stroke-linecap="round"></path>
            <path d="M29.2269559,40.4052273 L19.8981424,49.8053764" id="Stroke-14" stroke="#BCE2D5" stroke-width="1.18644068" stroke-linecap="round"></path>
            <path d="M18.0776136,29.169759 L8.74988475,38.5699081" id="Stroke-16" stroke="#BCE2D5" stroke-width="1.18644068" stroke-linecap="round"></path>
            <path d="M51.9579119,17.0030211 L56.5680814,17.0030211" id="Stroke-18" stroke="#509E2F" stroke-width="1.18644068" stroke-linecap="round"></path>
            <path d="M54.2629966,14.6800398 L54.2629966,19.3260025" id="Stroke-20" stroke="#509E2F" stroke-width="1.18644068" stroke-linecap="round"></path>
            <path d="M0.542589831,24.9925466 L5.15275932,24.9925466" id="Stroke-22" stroke="#509E2F" stroke-width="1.18644068" stroke-linecap="round"></path>
            <path d="M2.84767458,22.6695652 L2.84767458,27.315528" id="Stroke-24" stroke="#509E2F" stroke-width="1.18644068" stroke-linecap="round"></path>
            <polygon id="Fill-26" fill="#11533D" points="32.4001627 40.8840348 29.6167051 31.9211528 26.447078 34.9229913 30.1786034 43.1130037"></polygon>
            <polygon id="Fill-28" fill="#1D7E66" points="28.7046508 44.5905292 30.1777356 43.1125665 26.4472949 34.9236472 24.6672271 36.6093118"></polygon>
            <path d="M44.983322,28.1941068 L42.6077288,25.8000696 L46.280678,22.0986037 C46.9369492,21.4372373 48,21.4372373 48.6573559,22.0986037 C49.3125424,22.758877 49.3125424,23.8312745 48.6573559,24.492641 L44.983322,28.1941068 Z" id="Fill-30" fill="#11533D"></path>
            <polygon id="Fill-32" fill="#88CB5E" points="49.4981424 40.152159 44.0440407 18.4954137 37.1027525 24.9921093 47.357939 42.3089789"></polygon>
            <polygon id="Fill-34" fill="#1D7E66" points="47.3582644 42.3086509 37.103078 24.9928745 34.8869424 27.0666137 45.7474169 43.9330981"></polygon>
            <polygon id="Fill-36" fill="#11533D" points="16.4599322 24.8200447 25.3537627 27.625113 22.3750508 30.8193491 14.2481356 27.0588522"></polygon>
            <polygon id="Fill-38" fill="#1D7E66" points="12.7819932 28.5442484 14.2485695 27.0597267 22.3744 30.8191304 20.701722 32.6130186"></polygon>
            <path d="M29.0522034,12.1391901 L31.4277966,14.5332273 L35.1007458,10.8317615 C35.7570169,10.170395 35.7570169,9.09799752 35.1007458,8.43772422 C34.4455593,7.77635776 33.3814237,7.77635776 32.7251525,8.43772422 L29.0522034,12.1391901 Z" id="Fill-40" fill="#11533D"></path>
            <polygon id="Fill-42" fill="#88CB5E" points="17.1861695 7.58931677 38.6760678 13.085764 32.2294237 20.0809441 15.0459661 9.74613665"></polygon>
            <polygon id="Fill-44" fill="#1D7E66" points="15.0462915 9.7458087 32.2286644 20.0806161 30.1709017 22.3139578 13.4343593 11.3702559"></polygon>
            <path d="M19.5744542,37.745441 C18.491878,36.6555528 18.4604203,34.8988323 19.5017763,33.7684969 L45.6756068,5.37237267 C47.0684203,3.90206211 48.9396068,2.98817391 50.9474712,2.80124224 C52.8392678,2.62524224 54.4251661,4.22236025 54.2494373,6.12884472 C54.0639458,8.15229814 53.1570983,10.0391056 51.6970305,11.4405466 L23.5207593,37.8186832 C22.3991322,38.8681242 20.6559458,38.8364224 19.5744542,37.745441" id="Fill-46" fill="#ADDB8F"></path>
        </g>
    </g>
</svg>